  0
SECTION
  2
BLOCKS
  0
ENDSEC
  0
SECTION
  2
ENTITIES
  0
LINE
  8
0
 10
55.6526
 20
-18.9572
 11
56.2941
 21
-18.8296
  0
LINE
  8
0
 10
56.2941
 20
-18.8296
 11
56.9134
 21
-18.6194
  0
LINE
  8
0
 10
56.9134
 20
-18.6194
 11
57.5
 21
-18.3301
  0
LINE
  8
0
 10
57.5
 20
-18.3301
 11
58.0438
 21
-17.9668
  0
LINE
  8
0
 10
58.0438
 20
-17.9668
 11
58.5355
 21
-17.5355
  0
LINE
  8
0
 10
58.5355
 20
-17.5355
 11
58.9668
 21
-17.0438
  0
LINE
  8
0
 10
58.9668
 20
-17.0438
 11
59.3301
 21
-16.5
  0
LINE
  8
0
 10
59.3301
 20
-16.5
 11
59.6194
 21
-15.9134
  0
LINE
  8
0
 10
59.6194
 20
-15.9134
 11
59.8296
 21
-15.2941
  0
LINE
  8
0
 10
59.8296
 20
-15.2941
 11
59.9572
 21
-14.6526
  0
LINE
  8
0
 10
59.9572
 20
-14.6526
 11
60
 21
-14
  0
LINE
  8
0
 10
60
 20
-14
 11
60
 21
46
  0
LINE
  8
0
 10
60
 20
46
 11
59.9572
 21
46.6526
  0
LINE
  8
0
 10
59.9572
 20
46.6526
 11
59.8296
 21
47.2941
  0
LINE
  8
0
 10
59.8296
 20
47.2941
 11
59.6194
 21
47.9134
  0
LINE
  8
0
 10
59.6194
 20
47.9134
 11
59.3301
 21
48.5
  0
LINE
  8
0
 10
59.3301
 20
48.5
 11
58.9668
 21
49.0438
  0
LINE
  8
0
 10
58.9668
 20
49.0438
 11
58.5355
 21
49.5355
  0
LINE
  8
0
 10
58.5355
 20
49.5355
 11
58.0438
 21
49.9668
  0
LINE
  8
0
 10
58.0438
 20
49.9668
 11
57.5
 21
50.3301
  0
LINE
  8
0
 10
57.5
 20
50.3301
 11
56.9134
 21
50.6194
  0
LINE
  8
0
 10
56.9134
 20
50.6194
 11
56.2941
 21
50.8296
  0
LINE
  8
0
 10
56.2941
 20
50.8296
 11
55.6526
 21
50.9572
  0
LINE
  8
0
 10
55.6526
 20
50.9572
 11
55
 21
51
  0
LINE
  8
0
 10
55
 20
51
 11
-55
 21
51
  0
LINE
  8
0
 10
-55
 20
51
 11
-55.6526
 21
50.9572
  0
LINE
  8
0
 10
-55.6526
 20
50.9572
 11
-56.2941
 21
50.8296
  0
LINE
  8
0
 10
-56.2941
 20
50.8296
 11
-56.9134
 21
50.6194
  0
LINE
  8
0
 10
-56.9134
 20
50.6194
 11
-57.5
 21
50.3301
  0
LINE
  8
0
 10
-57.5
 20
50.3301
 11
-58.0438
 21
49.9668
  0
LINE
  8
0
 10
-58.0438
 20
49.9668
 11
-58.5355
 21
49.5355
  0
LINE
  8
0
 10
-58.5355
 20
49.5355
 11
-58.9668
 21
49.0438
  0
LINE
  8
0
 10
-58.9668
 20
49.0438
 11
-59.3301
 21
48.5
  0
LINE
  8
0
 10
-59.3301
 20
48.5
 11
-59.6194
 21
47.9134
  0
LINE
  8
0
 10
-59.6194
 20
47.9134
 11
-59.8296
 21
47.2941
  0
LINE
  8
0
 10
-59.8296
 20
47.2941
 11
-59.9572
 21
46.6526
  0
LINE
  8
0
 10
-59.9572
 20
46.6526
 11
-60
 21
46
  0
LINE
  8
0
 10
-60
 20
46
 11
-60
 21
-14
  0
LINE
  8
0
 10
-60
 20
-14
 11
-59.9572
 21
-14.6526
  0
LINE
  8
0
 10
-59.9572
 20
-14.6526
 11
-59.8296
 21
-15.2941
  0
LINE
  8
0
 10
-59.8296
 20
-15.2941
 11
-59.6194
 21
-15.9134
  0
LINE
  8
0
 10
-59.6194
 20
-15.9134
 11
-59.3301
 21
-16.5
  0
LINE
  8
0
 10
-59.3301
 20
-16.5
 11
-58.9668
 21
-17.0438
  0
LINE
  8
0
 10
-58.9668
 20
-17.0438
 11
-58.5355
 21
-17.5355
  0
LINE
  8
0
 10
-58.5355
 20
-17.5355
 11
-58.0438
 21
-17.9668
  0
LINE
  8
0
 10
-58.0438
 20
-17.9668
 11
-57.5
 21
-18.3301
  0
LINE
  8
0
 10
-57.5
 20
-18.3301
 11
-56.9134
 21
-18.6194
  0
LINE
  8
0
 10
-56.9134
 20
-18.6194
 11
-56.2941
 21
-18.8296
  0
LINE
  8
0
 10
-56.2941
 20
-18.8296
 11
-55.6526
 21
-18.9572
  0
LINE
  8
0
 10
-55.6526
 20
-18.9572
 11
-55
 21
-19
  0
LINE
  8
0
 10
-55
 20
-19
 11
55
 21
-19
  0
LINE
  8
0
 10
55
 20
-19
 11
55.6526
 21
-18.9572
  0
LINE
  8
0
 10
54.6391
 20
44.1855
 11
54.292
 21
44.2908
  0
LINE
  8
0
 10
54.292
 20
44.2908
 11
53.9722
 21
44.4618
  0
LINE
  8
0
 10
53.9722
 20
44.4618
 11
53.6918
 21
44.6918
  0
LINE
  8
0
 10
53.6918
 20
44.6918
 11
53.4618
 21
44.9722
  0
LINE
  8
0
 10
53.4618
 20
44.9722
 11
53.2908
 21
45.292
  0
LINE
  8
0
 10
53.2908
 20
45.292
 11
53.1855
 21
45.6391
  0
LINE
  8
0
 10
53.1855
 20
45.6391
 11
53.15
 21
46
  0
LINE
  8
0
 10
53.15
 20
46
 11
53.1855
 21
46.3609
  0
LINE
  8
0
 10
53.1855
 20
46.3609
 11
53.2908
 21
46.708
  0
LINE
  8
0
 10
53.2908
 20
46.708
 11
53.4618
 21
47.0278
  0
LINE
  8
0
 10
53.4618
 20
47.0278
 11
53.6918
 21
47.3081
  0
LINE
  8
0
 10
53.6918
 20
47.3081
 11
53.9722
 21
47.5382
  0
LINE
  8
0
 10
53.9722
 20
47.5382
 11
54.292
 21
47.7092
  0
LINE
  8
0
 10
54.292
 20
47.7092
 11
54.6391
 21
47.8144
  0
LINE
  8
0
 10
54.6391
 20
47.8144
 11
55
 21
47.85
  0
LINE
  8
0
 10
55
 20
47.85
 11
55.3609
 21
47.8144
  0
LINE
  8
0
 10
55.3609
 20
47.8144
 11
55.708
 21
47.7092
  0
LINE
  8
0
 10
55.708
 20
47.7092
 11
56.0278
 21
47.5382
  0
LINE
  8
0
 10
56.0278
 20
47.5382
 11
56.3081
 21
47.3081
  0
LINE
  8
0
 10
56.3081
 20
47.3081
 11
56.5382
 21
47.0278
  0
LINE
  8
0
 10
56.5382
 20
47.0278
 11
56.7092
 21
46.708
  0
LINE
  8
0
 10
56.7092
 20
46.708
 11
56.8144
 21
46.3609
  0
LINE
  8
0
 10
56.8144
 20
46.3609
 11
56.85
 21
46
  0
LINE
  8
0
 10
56.85
 20
46
 11
56.8144
 21
45.6391
  0
LINE
  8
0
 10
56.8144
 20
45.6391
 11
56.7092
 21
45.292
  0
LINE
  8
0
 10
56.7092
 20
45.292
 11
56.5382
 21
44.9722
  0
LINE
  8
0
 10
56.5382
 20
44.9722
 11
56.3081
 21
44.6918
  0
LINE
  8
0
 10
56.3081
 20
44.6918
 11
56.0278
 21
44.4618
  0
LINE
  8
0
 10
56.0278
 20
44.4618
 11
55.708
 21
44.2908
  0
LINE
  8
0
 10
55.708
 20
44.2908
 11
55.3609
 21
44.1855
  0
LINE
  8
0
 10
55.3609
 20
44.1855
 11
55
 21
44.15
  0
LINE
  8
0
 10
55
 20
44.15
 11
54.6391
 21
44.1855
  0
LINE
  8
0
 10
-55.3609
 20
44.1855
 11
-55.708
 21
44.2908
  0
LINE
  8
0
 10
-55.708
 20
44.2908
 11
-56.0278
 21
44.4618
  0
LINE
  8
0
 10
-56.0278
 20
44.4618
 11
-56.3081
 21
44.6918
  0
LINE
  8
0
 10
-56.3081
 20
44.6918
 11
-56.5382
 21
44.9722
  0
LINE
  8
0
 10
-56.5382
 20
44.9722
 11
-56.7092
 21
45.292
  0
LINE
  8
0
 10
-56.7092
 20
45.292
 11
-56.8144
 21
45.6391
  0
LINE
  8
0
 10
-56.8144
 20
45.6391
 11
-56.85
 21
46
  0
LINE
  8
0
 10
-56.85
 20
46
 11
-56.8144
 21
46.3609
  0
LINE
  8
0
 10
-56.8144
 20
46.3609
 11
-56.7092
 21
46.708
  0
LINE
  8
0
 10
-56.7092
 20
46.708
 11
-56.5382
 21
47.0278
  0
LINE
  8
0
 10
-56.5382
 20
47.0278
 11
-56.3081
 21
47.3081
  0
LINE
  8
0
 10
-56.3081
 20
47.3081
 11
-56.0278
 21
47.5382
  0
LINE
  8
0
 10
-56.0278
 20
47.5382
 11
-55.708
 21
47.7092
  0
LINE
  8
0
 10
-55.708
 20
47.7092
 11
-55.3609
 21
47.8144
  0
LINE
  8
0
 10
-55.3609
 20
47.8144
 11
-55
 21
47.85
  0
LINE
  8
0
 10
-55
 20
47.85
 11
-54.6391
 21
47.8144
  0
LINE
  8
0
 10
-54.6391
 20
47.8144
 11
-54.292
 21
47.7092
  0
LINE
  8
0
 10
-54.292
 20
47.7092
 11
-53.9722
 21
47.5382
  0
LINE
  8
0
 10
-53.9722
 20
47.5382
 11
-53.6918
 21
47.3081
  0
LINE
  8
0
 10
-53.6918
 20
47.3081
 11
-53.4618
 21
47.0278
  0
LINE
  8
0
 10
-53.4618
 20
47.0278
 11
-53.2908
 21
46.708
  0
LINE
  8
0
 10
-53.2908
 20
46.708
 11
-53.1855
 21
46.3609
  0
LINE
  8
0
 10
-53.1855
 20
46.3609
 11
-53.15
 21
46
  0
LINE
  8
0
 10
-53.15
 20
46
 11
-53.1855
 21
45.6391
  0
LINE
  8
0
 10
-53.1855
 20
45.6391
 11
-53.2908
 21
45.292
  0
LINE
  8
0
 10
-53.2908
 20
45.292
 11
-53.4618
 21
44.9722
  0
LINE
  8
0
 10
-53.4618
 20
44.9722
 11
-53.6918
 21
44.6918
  0
LINE
  8
0
 10
-53.6918
 20
44.6918
 11
-53.9722
 21
44.4618
  0
LINE
  8
0
 10
-53.9722
 20
44.4618
 11
-54.292
 21
44.2908
  0
LINE
  8
0
 10
-54.292
 20
44.2908
 11
-54.6391
 21
44.1855
  0
LINE
  8
0
 10
-54.6391
 20
44.1855
 11
-55
 21
44.15
  0
LINE
  8
0
 10
-55
 20
44.15
 11
-55.3609
 21
44.1855
  0
LINE
  8
0
 10
15.5784
 20
17.05
 11
16.9642
 21
18.4358
  0
LINE
  8
0
 10
16.9642
 20
18.4358
 11
17.282
 21
18.85
  0
LINE
  8
0
 10
17.282
 20
18.85
 11
17.4818
 21
19.3324
  0
LINE
  8
0
 10
17.4818
 20
19.3324
 11
17.55
 21
19.85
  0
LINE
  8
0
 10
17.55
 20
19.85
 11
17.4818
 21
20.3676
  0
LINE
  8
0
 10
17.4818
 20
20.3676
 11
17.282
 21
20.85
  0
LINE
  8
0
 10
17.282
 20
20.85
 11
16.9642
 21
21.2642
  0
LINE
  8
0
 10
16.9642
 20
21.2642
 11
16.55
 21
21.582
  0
LINE
  8
0
 10
16.55
 20
21.582
 11
16.0676
 21
21.7818
  0
LINE
  8
0
 10
16.0676
 20
21.7818
 11
15.55
 21
21.85
  0
LINE
  8
0
 10
15.55
 20
21.85
 11
15.0324
 21
21.7818
  0
LINE
  8
0
 10
15.0324
 20
21.7818
 11
14.55
 21
21.582
  0
LINE
  8
0
 10
14.55
 20
21.582
 11
14.1358
 21
21.2642
  0
LINE
  8
0
 10
14.1358
 20
21.2642
 11
12.75
 21
19.8784
  0
LINE
  8
0
 10
12.75
 20
19.8784
 11
12.75
 21
25
  0
LINE
  8
0
 10
12.75
 20
25
 11
3
 21
25
  0
LINE
  8
0
 10
3
 20
25
 11
3
 21
35
  0
LINE
  8
0
 10
3
 20
35
 11
12.75
 21
35
  0
LINE
  8
0
 10
12.75
 20
35
 11
12.75
 21
40.1216
  0
LINE
  8
0
 10
12.75
 20
40.1216
 11
14.1358
 21
38.7358
  0
LINE
  8
0
 10
14.1358
 20
38.7358
 11
14.55
 21
38.418
  0
LINE
  8
0
 10
14.55
 20
38.418
 11
15.0324
 21
38.2182
  0
LINE
  8
0
 10
15.0324
 20
38.2182
 11
15.55
 21
38.15
  0
LINE
  8
0
 10
15.55
 20
38.15
 11
16.0676
 21
38.2182
  0
LINE
  8
0
 10
16.0676
 20
38.2182
 11
16.55
 21
38.418
  0
LINE
  8
0
 10
16.55
 20
38.418
 11
16.9642
 21
38.7358
  0
LINE
  8
0
 10
16.9642
 20
38.7358
 11
17.282
 21
39.15
  0
LINE
  8
0
 10
17.282
 20
39.15
 11
17.4818
 21
39.6324
  0
LINE
  8
0
 10
17.4818
 20
39.6324
 11
17.55
 21
40.15
  0
LINE
  8
0
 10
17.55
 20
40.15
 11
17.4818
 21
40.6676
  0
LINE
  8
0
 10
17.4818
 20
40.6676
 11
17.282
 21
41.15
  0
LINE
  8
0
 10
17.282
 20
41.15
 11
16.9642
 21
41.5642
  0
LINE
  8
0
 10
16.9642
 20
41.5642
 11
15.5784
 21
42.95
  0
LINE
  8
0
 10
15.5784
 20
42.95
 11
35.8216
 21
42.95
  0
LINE
  8
0
 10
35.8216
 20
42.95
 11
34.4358
 21
41.5642
  0
LINE
  8
0
 10
34.4358
 20
41.5642
 11
34.118
 21
41.15
  0
LINE
  8
0
 10
34.118
 20
41.15
 11
33.9182
 21
40.6676
  0
LINE
  8
0
 10
33.9182
 20
40.6676
 11
33.85
 21
40.15
  0
LINE
  8
0
 10
33.85
 20
40.15
 11
33.9182
 21
39.6324
  0
LINE
  8
0
 10
33.9182
 20
39.6324
 11
34.118
 21
39.15
  0
LINE
  8
0
 10
34.118
 20
39.15
 11
34.4358
 21
38.7358
  0
LINE
  8
0
 10
34.4358
 20
38.7358
 11
34.85
 21
38.418
  0
LINE
  8
0
 10
34.85
 20
38.418
 11
35.3324
 21
38.2182
  0
LINE
  8
0
 10
35.3324
 20
38.2182
 11
35.85
 21
38.15
  0
LINE
  8
0
 10
35.85
 20
38.15
 11
36.3676
 21
38.2182
  0
LINE
  8
0
 10
36.3676
 20
38.2182
 11
36.85
 21
38.418
  0
LINE
  8
0
 10
36.85
 20
38.418
 11
37.2642
 21
38.7358
  0
LINE
  8
0
 10
37.2642
 20
38.7358
 11
38.65
 21
40.1216
  0
LINE
  8
0
 10
38.65
 20
40.1216
 11
38.65
 21
35
  0
LINE
  8
0
 10
38.65
 20
35
 11
48.4
 21
35
  0
LINE
  8
0
 10
48.4
 20
35
 11
48.4
 21
25
  0
LINE
  8
0
 10
48.4
 20
25
 11
38.65
 21
25
  0
LINE
  8
0
 10
38.65
 20
25
 11
38.65
 21
19.8784
  0
LINE
  8
0
 10
38.65
 20
19.8784
 11
37.2642
 21
21.2642
  0
LINE
  8
0
 10
37.2642
 20
21.2642
 11
36.85
 21
21.582
  0
LINE
  8
0
 10
36.85
 20
21.582
 11
36.3676
 21
21.7818
  0
LINE
  8
0
 10
36.3676
 20
21.7818
 11
35.85
 21
21.85
  0
LINE
  8
0
 10
35.85
 20
21.85
 11
35.3324
 21
21.7818
  0
LINE
  8
0
 10
35.3324
 20
21.7818
 11
34.85
 21
21.582
  0
LINE
  8
0
 10
34.85
 20
21.582
 11
34.4358
 21
21.2642
  0
LINE
  8
0
 10
34.4358
 20
21.2642
 11
34.118
 21
20.85
  0
LINE
  8
0
 10
34.118
 20
20.85
 11
33.9182
 21
20.3676
  0
LINE
  8
0
 10
33.9182
 20
20.3676
 11
33.85
 21
19.85
  0
LINE
  8
0
 10
33.85
 20
19.85
 11
33.9182
 21
19.3324
  0
LINE
  8
0
 10
33.9182
 20
19.3324
 11
34.118
 21
18.85
  0
LINE
  8
0
 10
34.118
 20
18.85
 11
34.4358
 21
18.4358
  0
LINE
  8
0
 10
34.4358
 20
18.4358
 11
35.8215
 21
17.05
  0
LINE
  8
0
 10
35.8215
 20
17.05
 11
15.5784
 21
17.05
  0
LINE
  8
0
 10
-35.8215
 20
17.05
 11
-34.4358
 21
18.4358
  0
LINE
  8
0
 10
-34.4358
 20
18.4358
 11
-34.118
 21
18.85
  0
LINE
  8
0
 10
-34.118
 20
18.85
 11
-33.9182
 21
19.3324
  0
LINE
  8
0
 10
-33.9182
 20
19.3324
 11
-33.85
 21
19.85
  0
LINE
  8
0
 10
-33.85
 20
19.85
 11
-33.9182
 21
20.3676
  0
LINE
  8
0
 10
-33.9182
 20
20.3676
 11
-34.118
 21
20.85
  0
LINE
  8
0
 10
-34.118
 20
20.85
 11
-34.4358
 21
21.2642
  0
LINE
  8
0
 10
-34.4358
 20
21.2642
 11
-34.85
 21
21.582
  0
LINE
  8
0
 10
-34.85
 20
21.582
 11
-35.3324
 21
21.7818
  0
LINE
  8
0
 10
-35.3324
 20
21.7818
 11
-35.85
 21
21.85
  0
LINE
  8
0
 10
-35.85
 20
21.85
 11
-36.3676
 21
21.7818
  0
LINE
  8
0
 10
-36.3676
 20
21.7818
 11
-36.85
 21
21.582
  0
LINE
  8
0
 10
-36.85
 20
21.582
 11
-37.2642
 21
21.2642
  0
LINE
  8
0
 10
-37.2642
 20
21.2642
 11
-38.65
 21
19.8784
  0
LINE
  8
0
 10
-38.65
 20
19.8784
 11
-38.65
 21
25
  0
LINE
  8
0
 10
-38.65
 20
25
 11
-48.4
 21
25
  0
LINE
  8
0
 10
-48.4
 20
25
 11
-48.4
 21
35
  0
LINE
  8
0
 10
-48.4
 20
35
 11
-38.65
 21
35
  0
LINE
  8
0
 10
-38.65
 20
35
 11
-38.65
 21
40.1216
  0
LINE
  8
0
 10
-38.65
 20
40.1216
 11
-37.2642
 21
38.7358
  0
LINE
  8
0
 10
-37.2642
 20
38.7358
 11
-36.85
 21
38.418
  0
LINE
  8
0
 10
-36.85
 20
38.418
 11
-36.3676
 21
38.2182
  0
LINE
  8
0
 10
-36.3676
 20
38.2182
 11
-35.85
 21
38.15
  0
LINE
  8
0
 10
-35.85
 20
38.15
 11
-35.3324
 21
38.2182
  0
LINE
  8
0
 10
-35.3324
 20
38.2182
 11
-34.85
 21
38.418
  0
LINE
  8
0
 10
-34.85
 20
38.418
 11
-34.4358
 21
38.7358
  0
LINE
  8
0
 10
-34.4358
 20
38.7358
 11
-34.118
 21
39.15
  0
LINE
  8
0
 10
-34.118
 20
39.15
 11
-33.9182
 21
39.6324
  0
LINE
  8
0
 10
-33.9182
 20
39.6324
 11
-33.85
 21
40.15
  0
LINE
  8
0
 10
-33.85
 20
40.15
 11
-33.9182
 21
40.6676
  0
LINE
  8
0
 10
-33.9182
 20
40.6676
 11
-34.118
 21
41.15
  0
LINE
  8
0
 10
-34.118
 20
41.15
 11
-34.4358
 21
41.5642
  0
LINE
  8
0
 10
-34.4358
 20
41.5642
 11
-35.8216
 21
42.95
  0
LINE
  8
0
 10
-35.8216
 20
42.95
 11
-15.5784
 21
42.95
  0
LINE
  8
0
 10
-15.5784
 20
42.95
 11
-16.9642
 21
41.5642
  0
LINE
  8
0
 10
-16.9642
 20
41.5642
 11
-17.282
 21
41.15
  0
LINE
  8
0
 10
-17.282
 20
41.15
 11
-17.4818
 21
40.6676
  0
LINE
  8
0
 10
-17.4818
 20
40.6676
 11
-17.55
 21
40.15
  0
LINE
  8
0
 10
-17.55
 20
40.15
 11
-17.4818
 21
39.6324
  0
LINE
  8
0
 10
-17.4818
 20
39.6324
 11
-17.282
 21
39.15
  0
LINE
  8
0
 10
-17.282
 20
39.15
 11
-16.9642
 21
38.7358
  0
LINE
  8
0
 10
-16.9642
 20
38.7358
 11
-16.55
 21
38.418
  0
LINE
  8
0
 10
-16.55
 20
38.418
 11
-16.0676
 21
38.2182
  0
LINE
  8
0
 10
-16.0676
 20
38.2182
 11
-15.55
 21
38.15
  0
LINE
  8
0
 10
-15.55
 20
38.15
 11
-15.0324
 21
38.2182
  0
LINE
  8
0
 10
-15.0324
 20
38.2182
 11
-14.55
 21
38.418
  0
LINE
  8
0
 10
-14.55
 20
38.418
 11
-14.1358
 21
38.7358
  0
LINE
  8
0
 10
-14.1358
 20
38.7358
 11
-12.75
 21
40.1216
  0
LINE
  8
0
 10
-12.75
 20
40.1216
 11
-12.75
 21
35
  0
LINE
  8
0
 10
-12.75
 20
35
 11
-3
 21
35
  0
LINE
  8
0
 10
-3
 20
35
 11
-3
 21
25
  0
LINE
  8
0
 10
-3
 20
25
 11
-12.75
 21
25
  0
LINE
  8
0
 10
-12.75
 20
25
 11
-12.75
 21
19.8784
  0
LINE
  8
0
 10
-12.75
 20
19.8784
 11
-14.1358
 21
21.2642
  0
LINE
  8
0
 10
-14.1358
 20
21.2642
 11
-14.55
 21
21.582
  0
LINE
  8
0
 10
-14.55
 20
21.582
 11
-15.0324
 21
21.7818
  0
LINE
  8
0
 10
-15.0324
 20
21.7818
 11
-15.55
 21
21.85
  0
LINE
  8
0
 10
-15.55
 20
21.85
 11
-16.0676
 21
21.7818
  0
LINE
  8
0
 10
-16.0676
 20
21.7818
 11
-16.55
 21
21.582
  0
LINE
  8
0
 10
-16.55
 20
21.582
 11
-16.9642
 21
21.2642
  0
LINE
  8
0
 10
-16.9642
 20
21.2642
 11
-17.282
 21
20.85
  0
LINE
  8
0
 10
-17.282
 20
20.85
 11
-17.4818
 21
20.3676
  0
LINE
  8
0
 10
-17.4818
 20
20.3676
 11
-17.55
 21
19.85
  0
LINE
  8
0
 10
-17.55
 20
19.85
 11
-17.4818
 21
19.3324
  0
LINE
  8
0
 10
-17.4818
 20
19.3324
 11
-17.282
 21
18.85
  0
LINE
  8
0
 10
-17.282
 20
18.85
 11
-16.9642
 21
18.4358
  0
LINE
  8
0
 10
-16.9642
 20
18.4358
 11
-15.5784
 21
17.05
  0
LINE
  8
0
 10
-15.5784
 20
17.05
 11
-35.8215
 21
17.05
  0
LINE
  8
0
 10
15.2866
 20
38.8259
 11
15.0334
 21
38.9028
  0
LINE
  8
0
 10
15.0334
 20
38.9028
 11
14.8
 21
39.0275
  0
LINE
  8
0
 10
14.8
 20
39.0275
 11
14.5954
 21
39.1954
  0
LINE
  8
0
 10
14.5954
 20
39.1954
 11
14.4275
 21
39.4
  0
LINE
  8
0
 10
14.4275
 20
39.4
 11
14.3027
 21
39.6334
  0
LINE
  8
0
 10
14.3027
 20
39.6334
 11
14.2259
 21
39.8866
  0
LINE
  8
0
 10
14.2259
 20
39.8866
 11
14.2
 21
40.15
  0
LINE
  8
0
 10
14.2
 20
40.15
 11
14.2259
 21
40.4134
  0
LINE
  8
0
 10
14.2259
 20
40.4134
 11
14.3027
 21
40.6666
  0
LINE
  8
0
 10
14.3027
 20
40.6666
 11
14.4275
 21
40.9
  0
LINE
  8
0
 10
14.4275
 20
40.9
 11
14.5954
 21
41.1046
  0
LINE
  8
0
 10
14.5954
 20
41.1046
 11
14.8
 21
41.2725
  0
LINE
  8
0
 10
14.8
 20
41.2725
 11
15.0334
 21
41.3972
  0
LINE
  8
0
 10
15.0334
 20
41.3972
 11
15.2866
 21
41.4741
  0
LINE
  8
0
 10
15.2866
 20
41.4741
 11
15.55
 21
41.5
  0
LINE
  8
0
 10
15.55
 20
41.5
 11
15.8134
 21
41.4741
  0
LINE
  8
0
 10
15.8134
 20
41.4741
 11
16.0666
 21
41.3972
  0
LINE
  8
0
 10
16.0666
 20
41.3972
 11
16.3
 21
41.2725
  0
LINE
  8
0
 10
16.3
 20
41.2725
 11
16.5046
 21
41.1046
  0
LINE
  8
0
 10
16.5046
 20
41.1046
 11
16.6725
 21
40.9
  0
LINE
  8
0
 10
16.6725
 20
40.9
 11
16.7972
 21
40.6666
  0
LINE
  8
0
 10
16.7972
 20
40.6666
 11
16.8741
 21
40.4134
  0
LINE
  8
0
 10
16.8741
 20
40.4134
 11
16.9
 21
40.15
  0
LINE
  8
0
 10
16.9
 20
40.15
 11
16.8741
 21
39.8866
  0
LINE
  8
0
 10
16.8741
 20
39.8866
 11
16.7972
 21
39.6334
  0
LINE
  8
0
 10
16.7972
 20
39.6334
 11
16.6725
 21
39.4
  0
LINE
  8
0
 10
16.6725
 20
39.4
 11
16.5046
 21
39.1954
  0
LINE
  8
0
 10
16.5046
 20
39.1954
 11
16.3
 21
39.0275
  0
LINE
  8
0
 10
16.3
 20
39.0275
 11
16.0666
 21
38.9028
  0
LINE
  8
0
 10
16.0666
 20
38.9028
 11
15.8134
 21
38.8259
  0
LINE
  8
0
 10
15.8134
 20
38.8259
 11
15.55
 21
38.8
  0
LINE
  8
0
 10
15.55
 20
38.8
 11
15.2866
 21
38.8259
  0
LINE
  8
0
 10
-15.8134
 20
38.8259
 11
-16.0666
 21
38.9028
  0
LINE
  8
0
 10
-16.0666
 20
38.9028
 11
-16.3
 21
39.0275
  0
LINE
  8
0
 10
-16.3
 20
39.0275
 11
-16.5046
 21
39.1954
  0
LINE
  8
0
 10
-16.5046
 20
39.1954
 11
-16.6725
 21
39.4
  0
LINE
  8
0
 10
-16.6725
 20
39.4
 11
-16.7972
 21
39.6334
  0
LINE
  8
0
 10
-16.7972
 20
39.6334
 11
-16.8741
 21
39.8866
  0
LINE
  8
0
 10
-16.8741
 20
39.8866
 11
-16.9
 21
40.15
  0
LINE
  8
0
 10
-16.9
 20
40.15
 11
-16.8741
 21
40.4134
  0
LINE
  8
0
 10
-16.8741
 20
40.4134
 11
-16.7972
 21
40.6666
  0
LINE
  8
0
 10
-16.7972
 20
40.6666
 11
-16.6725
 21
40.9
  0
LINE
  8
0
 10
-16.6725
 20
40.9
 11
-16.5046
 21
41.1046
  0
LINE
  8
0
 10
-16.5046
 20
41.1046
 11
-16.3
 21
41.2725
  0
LINE
  8
0
 10
-16.3
 20
41.2725
 11
-16.0666
 21
41.3972
  0
LINE
  8
0
 10
-16.0666
 20
41.3972
 11
-15.8134
 21
41.4741
  0
LINE
  8
0
 10
-15.8134
 20
41.4741
 11
-15.55
 21
41.5
  0
LINE
  8
0
 10
-15.55
 20
41.5
 11
-15.2866
 21
41.4741
  0
LINE
  8
0
 10
-15.2866
 20
41.4741
 11
-15.0334
 21
41.3972
  0
LINE
  8
0
 10
-15.0334
 20
41.3972
 11
-14.8
 21
41.2725
  0
LINE
  8
0
 10
-14.8
 20
41.2725
 11
-14.5954
 21
41.1046
  0
LINE
  8
0
 10
-14.5954
 20
41.1046
 11
-14.4275
 21
40.9
  0
LINE
  8
0
 10
-14.4275
 20
40.9
 11
-14.3027
 21
40.6666
  0
LINE
  8
0
 10
-14.3027
 20
40.6666
 11
-14.2259
 21
40.4134
  0
LINE
  8
0
 10
-14.2259
 20
40.4134
 11
-14.2
 21
40.15
  0
LINE
  8
0
 10
-14.2
 20
40.15
 11
-14.2259
 21
39.8866
  0
LINE
  8
0
 10
-14.2259
 20
39.8866
 11
-14.3027
 21
39.6334
  0
LINE
  8
0
 10
-14.3027
 20
39.6334
 11
-14.4275
 21
39.4
  0
LINE
  8
0
 10
-14.4275
 20
39.4
 11
-14.5954
 21
39.1954
  0
LINE
  8
0
 10
-14.5954
 20
39.1954
 11
-14.8
 21
39.0275
  0
LINE
  8
0
 10
-14.8
 20
39.0275
 11
-15.0334
 21
38.9028
  0
LINE
  8
0
 10
-15.0334
 20
38.9028
 11
-15.2866
 21
38.8259
  0
LINE
  8
0
 10
-15.2866
 20
38.8259
 11
-15.55
 21
38.8
  0
LINE
  8
0
 10
-15.55
 20
38.8
 11
-15.8134
 21
38.8259
  0
LINE
  8
0
 10
-36.1134
 20
38.8259
 11
-36.3666
 21
38.9028
  0
LINE
  8
0
 10
-36.3666
 20
38.9028
 11
-36.6
 21
39.0275
  0
LINE
  8
0
 10
-36.6
 20
39.0275
 11
-36.8046
 21
39.1954
  0
LINE
  8
0
 10
-36.8046
 20
39.1954
 11
-36.9725
 21
39.4
  0
LINE
  8
0
 10
-36.9725
 20
39.4
 11
-37.0972
 21
39.6334
  0
LINE
  8
0
 10
-37.0972
 20
39.6334
 11
-37.1741
 21
39.8866
  0
LINE
  8
0
 10
-37.1741
 20
39.8866
 11
-37.2
 21
40.15
  0
LINE
  8
0
 10
-37.2
 20
40.15
 11
-37.1741
 21
40.4134
  0
LINE
  8
0
 10
-37.1741
 20
40.4134
 11
-37.0972
 21
40.6666
  0
LINE
  8
0
 10
-37.0972
 20
40.6666
 11
-36.9725
 21
40.9
  0
LINE
  8
0
 10
-36.9725
 20
40.9
 11
-36.8046
 21
41.1046
  0
LINE
  8
0
 10
-36.8046
 20
41.1046
 11
-36.6
 21
41.2725
  0
LINE
  8
0
 10
-36.6
 20
41.2725
 11
-36.3666
 21
41.3972
  0
LINE
  8
0
 10
-36.3666
 20
41.3972
 11
-36.1134
 21
41.4741
  0
LINE
  8
0
 10
-36.1134
 20
41.4741
 11
-35.85
 21
41.5
  0
LINE
  8
0
 10
-35.85
 20
41.5
 11
-35.5866
 21
41.4741
  0
LINE
  8
0
 10
-35.5866
 20
41.4741
 11
-35.3334
 21
41.3972
  0
LINE
  8
0
 10
-35.3334
 20
41.3972
 11
-35.1
 21
41.2725
  0
LINE
  8
0
 10
-35.1
 20
41.2725
 11
-34.8954
 21
41.1046
  0
LINE
  8
0
 10
-34.8954
 20
41.1046
 11
-34.7275
 21
40.9
  0
LINE
  8
0
 10
-34.7275
 20
40.9
 11
-34.6028
 21
40.6666
  0
LINE
  8
0
 10
-34.6028
 20
40.6666
 11
-34.5259
 21
40.4134
  0
LINE
  8
0
 10
-34.5259
 20
40.4134
 11
-34.5
 21
40.15
  0
LINE
  8
0
 10
-34.5
 20
40.15
 11
-34.5259
 21
39.8866
  0
LINE
  8
0
 10
-34.5259
 20
39.8866
 11
-34.6028
 21
39.6334
  0
LINE
  8
0
 10
-34.6028
 20
39.6334
 11
-34.7275
 21
39.4
  0
LINE
  8
0
 10
-34.7275
 20
39.4
 11
-34.8954
 21
39.1954
  0
LINE
  8
0
 10
-34.8954
 20
39.1954
 11
-35.1
 21
39.0275
  0
LINE
  8
0
 10
-35.1
 20
39.0275
 11
-35.3334
 21
38.9028
  0
LINE
  8
0
 10
-35.3334
 20
38.9028
 11
-35.5866
 21
38.8259
  0
LINE
  8
0
 10
-35.5866
 20
38.8259
 11
-35.85
 21
38.8
  0
LINE
  8
0
 10
-35.85
 20
38.8
 11
-36.1134
 21
38.8259
  0
LINE
  8
0
 10
35.5866
 20
38.8259
 11
35.3334
 21
38.9028
  0
LINE
  8
0
 10
35.3334
 20
38.9028
 11
35.1
 21
39.0275
  0
LINE
  8
0
 10
35.1
 20
39.0275
 11
34.8954
 21
39.1954
  0
LINE
  8
0
 10
34.8954
 20
39.1954
 11
34.7275
 21
39.4
  0
LINE
  8
0
 10
34.7275
 20
39.4
 11
34.6028
 21
39.6334
  0
LINE
  8
0
 10
34.6028
 20
39.6334
 11
34.5259
 21
39.8866
  0
LINE
  8
0
 10
34.5259
 20
39.8866
 11
34.5
 21
40.15
  0
LINE
  8
0
 10
34.5
 20
40.15
 11
34.5259
 21
40.4134
  0
LINE
  8
0
 10
34.5259
 20
40.4134
 11
34.6028
 21
40.6666
  0
LINE
  8
0
 10
34.6028
 20
40.6666
 11
34.7275
 21
40.9
  0
LINE
  8
0
 10
34.7275
 20
40.9
 11
34.8954
 21
41.1046
  0
LINE
  8
0
 10
34.8954
 20
41.1046
 11
35.1
 21
41.2725
  0
LINE
  8
0
 10
35.1
 20
41.2725
 11
35.3334
 21
41.3972
  0
LINE
  8
0
 10
35.3334
 20
41.3972
 11
35.5866
 21
41.4741
  0
LINE
  8
0
 10
35.5866
 20
41.4741
 11
35.85
 21
41.5
  0
LINE
  8
0
 10
35.85
 20
41.5
 11
36.1134
 21
41.4741
  0
LINE
  8
0
 10
36.1134
 20
41.4741
 11
36.3666
 21
41.3972
  0
LINE
  8
0
 10
36.3666
 20
41.3972
 11
36.6
 21
41.2725
  0
LINE
  8
0
 10
36.6
 20
41.2725
 11
36.8046
 21
41.1046
  0
LINE
  8
0
 10
36.8046
 20
41.1046
 11
36.9725
 21
40.9
  0
LINE
  8
0
 10
36.9725
 20
40.9
 11
37.0972
 21
40.6666
  0
LINE
  8
0
 10
37.0972
 20
40.6666
 11
37.1741
 21
40.4134
  0
LINE
  8
0
 10
37.1741
 20
40.4134
 11
37.2
 21
40.15
  0
LINE
  8
0
 10
37.2
 20
40.15
 11
37.1741
 21
39.8866
  0
LINE
  8
0
 10
37.1741
 20
39.8866
 11
37.0972
 21
39.6334
  0
LINE
  8
0
 10
37.0972
 20
39.6334
 11
36.9725
 21
39.4
  0
LINE
  8
0
 10
36.9725
 20
39.4
 11
36.8046
 21
39.1954
  0
LINE
  8
0
 10
36.8046
 20
39.1954
 11
36.6
 21
39.0275
  0
LINE
  8
0
 10
36.6
 20
39.0275
 11
36.3666
 21
38.9028
  0
LINE
  8
0
 10
36.3666
 20
38.9028
 11
36.1134
 21
38.8259
  0
LINE
  8
0
 10
36.1134
 20
38.8259
 11
35.85
 21
38.8
  0
LINE
  8
0
 10
35.85
 20
38.8
 11
35.5866
 21
38.8259
  0
LINE
  8
0
 10
15.2866
 20
18.5259
 11
15.0334
 21
18.6028
  0
LINE
  8
0
 10
15.0334
 20
18.6028
 11
14.8
 21
18.7275
  0
LINE
  8
0
 10
14.8
 20
18.7275
 11
14.5954
 21
18.8954
  0
LINE
  8
0
 10
14.5954
 20
18.8954
 11
14.4275
 21
19.1
  0
LINE
  8
0
 10
14.4275
 20
19.1
 11
14.3027
 21
19.3334
  0
LINE
  8
0
 10
14.3027
 20
19.3334
 11
14.2259
 21
19.5866
  0
LINE
  8
0
 10
14.2259
 20
19.5866
 11
14.2
 21
19.85
  0
LINE
  8
0
 10
14.2
 20
19.85
 11
14.2259
 21
20.1134
  0
LINE
  8
0
 10
14.2259
 20
20.1134
 11
14.3027
 21
20.3666
  0
LINE
  8
0
 10
14.3027
 20
20.3666
 11
14.4275
 21
20.6
  0
LINE
  8
0
 10
14.4275
 20
20.6
 11
14.5954
 21
20.8046
  0
LINE
  8
0
 10
14.5954
 20
20.8046
 11
14.8
 21
20.9725
  0
LINE
  8
0
 10
14.8
 20
20.9725
 11
15.0334
 21
21.0972
  0
LINE
  8
0
 10
15.0334
 20
21.0972
 11
15.2866
 21
21.1741
  0
LINE
  8
0
 10
15.2866
 20
21.1741
 11
15.55
 21
21.2
  0
LINE
  8
0
 10
15.55
 20
21.2
 11
15.8134
 21
21.1741
  0
LINE
  8
0
 10
15.8134
 20
21.1741
 11
16.0666
 21
21.0972
  0
LINE
  8
0
 10
16.0666
 20
21.0972
 11
16.3
 21
20.9725
  0
LINE
  8
0
 10
16.3
 20
20.9725
 11
16.5046
 21
20.8046
  0
LINE
  8
0
 10
16.5046
 20
20.8046
 11
16.6725
 21
20.6
  0
LINE
  8
0
 10
16.6725
 20
20.6
 11
16.7972
 21
20.3666
  0
LINE
  8
0
 10
16.7972
 20
20.3666
 11
16.8741
 21
20.1134
  0
LINE
  8
0
 10
16.8741
 20
20.1134
 11
16.9
 21
19.85
  0
LINE
  8
0
 10
16.9
 20
19.85
 11
16.8741
 21
19.5866
  0
LINE
  8
0
 10
16.8741
 20
19.5866
 11
16.7972
 21
19.3334
  0
LINE
  8
0
 10
16.7972
 20
19.3334
 11
16.6725
 21
19.1
  0
LINE
  8
0
 10
16.6725
 20
19.1
 11
16.5046
 21
18.8954
  0
LINE
  8
0
 10
16.5046
 20
18.8954
 11
16.3
 21
18.7275
  0
LINE
  8
0
 10
16.3
 20
18.7275
 11
16.0666
 21
18.6028
  0
LINE
  8
0
 10
16.0666
 20
18.6028
 11
15.8134
 21
18.5259
  0
LINE
  8
0
 10
15.8134
 20
18.5259
 11
15.55
 21
18.5
  0
LINE
  8
0
 10
15.55
 20
18.5
 11
15.2866
 21
18.5259
  0
LINE
  8
0
 10
35.5866
 20
18.5259
 11
35.3334
 21
18.6028
  0
LINE
  8
0
 10
35.3334
 20
18.6028
 11
35.1
 21
18.7275
  0
LINE
  8
0
 10
35.1
 20
18.7275
 11
34.8954
 21
18.8954
  0
LINE
  8
0
 10
34.8954
 20
18.8954
 11
34.7275
 21
19.1
  0
LINE
  8
0
 10
34.7275
 20
19.1
 11
34.6028
 21
19.3334
  0
LINE
  8
0
 10
34.6028
 20
19.3334
 11
34.5259
 21
19.5866
  0
LINE
  8
0
 10
34.5259
 20
19.5866
 11
34.5
 21
19.85
  0
LINE
  8
0
 10
34.5
 20
19.85
 11
34.5259
 21
20.1134
  0
LINE
  8
0
 10
34.5259
 20
20.1134
 11
34.6028
 21
20.3666
  0
LINE
  8
0
 10
34.6028
 20
20.3666
 11
34.7275
 21
20.6
  0
LINE
  8
0
 10
34.7275
 20
20.6
 11
34.8954
 21
20.8046
  0
LINE
  8
0
 10
34.8954
 20
20.8046
 11
35.1
 21
20.9725
  0
LINE
  8
0
 10
35.1
 20
20.9725
 11
35.3334
 21
21.0972
  0
LINE
  8
0
 10
35.3334
 20
21.0972
 11
35.5866
 21
21.1741
  0
LINE
  8
0
 10
35.5866
 20
21.1741
 11
35.85
 21
21.2
  0
LINE
  8
0
 10
35.85
 20
21.2
 11
36.1134
 21
21.1741
  0
LINE
  8
0
 10
36.1134
 20
21.1741
 11
36.3666
 21
21.0972
  0
LINE
  8
0
 10
36.3666
 20
21.0972
 11
36.6
 21
20.9725
  0
LINE
  8
0
 10
36.6
 20
20.9725
 11
36.8046
 21
20.8046
  0
LINE
  8
0
 10
36.8046
 20
20.8046
 11
36.9725
 21
20.6
  0
LINE
  8
0
 10
36.9725
 20
20.6
 11
37.0972
 21
20.3666
  0
LINE
  8
0
 10
37.0972
 20
20.3666
 11
37.1741
 21
20.1134
  0
LINE
  8
0
 10
37.1741
 20
20.1134
 11
37.2
 21
19.85
  0
LINE
  8
0
 10
37.2
 20
19.85
 11
37.1741
 21
19.5866
  0
LINE
  8
0
 10
37.1741
 20
19.5866
 11
37.0972
 21
19.3334
  0
LINE
  8
0
 10
37.0972
 20
19.3334
 11
36.9725
 21
19.1
  0
LINE
  8
0
 10
36.9725
 20
19.1
 11
36.8046
 21
18.8954
  0
LINE
  8
0
 10
36.8046
 20
18.8954
 11
36.6
 21
18.7275
  0
LINE
  8
0
 10
36.6
 20
18.7275
 11
36.3666
 21
18.6028
  0
LINE
  8
0
 10
36.3666
 20
18.6028
 11
36.1134
 21
18.5259
  0
LINE
  8
0
 10
36.1134
 20
18.5259
 11
35.85
 21
18.5
  0
LINE
  8
0
 10
35.85
 20
18.5
 11
35.5866
 21
18.5259
  0
LINE
  8
0
 10
-36.1134
 20
18.5259
 11
-36.3666
 21
18.6028
  0
LINE
  8
0
 10
-36.3666
 20
18.6028
 11
-36.6
 21
18.7275
  0
LINE
  8
0
 10
-36.6
 20
18.7275
 11
-36.8046
 21
18.8954
  0
LINE
  8
0
 10
-36.8046
 20
18.8954
 11
-36.9725
 21
19.1
  0
LINE
  8
0
 10
-36.9725
 20
19.1
 11
-37.0972
 21
19.3334
  0
LINE
  8
0
 10
-37.0972
 20
19.3334
 11
-37.1741
 21
19.5866
  0
LINE
  8
0
 10
-37.1741
 20
19.5866
 11
-37.2
 21
19.85
  0
LINE
  8
0
 10
-37.2
 20
19.85
 11
-37.1741
 21
20.1134
  0
LINE
  8
0
 10
-37.1741
 20
20.1134
 11
-37.0972
 21
20.3666
  0
LINE
  8
0
 10
-37.0972
 20
20.3666
 11
-36.9725
 21
20.6
  0
LINE
  8
0
 10
-36.9725
 20
20.6
 11
-36.8046
 21
20.8046
  0
LINE
  8
0
 10
-36.8046
 20
20.8046
 11
-36.6
 21
20.9725
  0
LINE
  8
0
 10
-36.6
 20
20.9725
 11
-36.3666
 21
21.0972
  0
LINE
  8
0
 10
-36.3666
 20
21.0972
 11
-36.1134
 21
21.1741
  0
LINE
  8
0
 10
-36.1134
 20
21.1741
 11
-35.85
 21
21.2
  0
LINE
  8
0
 10
-35.85
 20
21.2
 11
-35.5866
 21
21.1741
  0
LINE
  8
0
 10
-35.5866
 20
21.1741
 11
-35.3334
 21
21.0972
  0
LINE
  8
0
 10
-35.3334
 20
21.0972
 11
-35.1
 21
20.9725
  0
LINE
  8
0
 10
-35.1
 20
20.9725
 11
-34.8954
 21
20.8046
  0
LINE
  8
0
 10
-34.8954
 20
20.8046
 11
-34.7275
 21
20.6
  0
LINE
  8
0
 10
-34.7275
 20
20.6
 11
-34.6028
 21
20.3666
  0
LINE
  8
0
 10
-34.6028
 20
20.3666
 11
-34.5259
 21
20.1134
  0
LINE
  8
0
 10
-34.5259
 20
20.1134
 11
-34.5
 21
19.85
  0
LINE
  8
0
 10
-34.5
 20
19.85
 11
-34.5259
 21
19.5866
  0
LINE
  8
0
 10
-34.5259
 20
19.5866
 11
-34.6028
 21
19.3334
  0
LINE
  8
0
 10
-34.6028
 20
19.3334
 11
-34.7275
 21
19.1
  0
LINE
  8
0
 10
-34.7275
 20
19.1
 11
-34.8954
 21
18.8954
  0
LINE
  8
0
 10
-34.8954
 20
18.8954
 11
-35.1
 21
18.7275
  0
LINE
  8
0
 10
-35.1
 20
18.7275
 11
-35.3334
 21
18.6028
  0
LINE
  8
0
 10
-35.3334
 20
18.6028
 11
-35.5866
 21
18.5259
  0
LINE
  8
0
 10
-35.5866
 20
18.5259
 11
-35.85
 21
18.5
  0
LINE
  8
0
 10
-35.85
 20
18.5
 11
-36.1134
 21
18.5259
  0
LINE
  8
0
 10
-15.8134
 20
18.5259
 11
-16.0666
 21
18.6028
  0
LINE
  8
0
 10
-16.0666
 20
18.6028
 11
-16.3
 21
18.7275
  0
LINE
  8
0
 10
-16.3
 20
18.7275
 11
-16.5046
 21
18.8954
  0
LINE
  8
0
 10
-16.5046
 20
18.8954
 11
-16.6725
 21
19.1
  0
LINE
  8
0
 10
-16.6725
 20
19.1
 11
-16.7972
 21
19.3334
  0
LINE
  8
0
 10
-16.7972
 20
19.3334
 11
-16.8741
 21
19.5866
  0
LINE
  8
0
 10
-16.8741
 20
19.5866
 11
-16.9
 21
19.85
  0
LINE
  8
0
 10
-16.9
 20
19.85
 11
-16.8741
 21
20.1134
  0
LINE
  8
0
 10
-16.8741
 20
20.1134
 11
-16.7972
 21
20.3666
  0
LINE
  8
0
 10
-16.7972
 20
20.3666
 11
-16.6725
 21
20.6
  0
LINE
  8
0
 10
-16.6725
 20
20.6
 11
-16.5046
 21
20.8046
  0
LINE
  8
0
 10
-16.5046
 20
20.8046
 11
-16.3
 21
20.9725
  0
LINE
  8
0
 10
-16.3
 20
20.9725
 11
-16.0666
 21
21.0972
  0
LINE
  8
0
 10
-16.0666
 20
21.0972
 11
-15.8134
 21
21.1741
  0
LINE
  8
0
 10
-15.8134
 20
21.1741
 11
-15.55
 21
21.2
  0
LINE
  8
0
 10
-15.55
 20
21.2
 11
-15.2866
 21
21.1741
  0
LINE
  8
0
 10
-15.2866
 20
21.1741
 11
-15.0334
 21
21.0972
  0
LINE
  8
0
 10
-15.0334
 20
21.0972
 11
-14.8
 21
20.9725
  0
LINE
  8
0
 10
-14.8
 20
20.9725
 11
-14.5954
 21
20.8046
  0
LINE
  8
0
 10
-14.5954
 20
20.8046
 11
-14.4275
 21
20.6
  0
LINE
  8
0
 10
-14.4275
 20
20.6
 11
-14.3027
 21
20.3666
  0
LINE
  8
0
 10
-14.3027
 20
20.3666
 11
-14.2259
 21
20.1134
  0
LINE
  8
0
 10
-14.2259
 20
20.1134
 11
-14.2
 21
19.85
  0
LINE
  8
0
 10
-14.2
 20
19.85
 11
-14.2259
 21
19.5866
  0
LINE
  8
0
 10
-14.2259
 20
19.5866
 11
-14.3027
 21
19.3334
  0
LINE
  8
0
 10
-14.3027
 20
19.3334
 11
-14.4275
 21
19.1
  0
LINE
  8
0
 10
-14.4275
 20
19.1
 11
-14.5954
 21
18.8954
  0
LINE
  8
0
 10
-14.5954
 20
18.8954
 11
-14.8
 21
18.7275
  0
LINE
  8
0
 10
-14.8
 20
18.7275
 11
-15.0334
 21
18.6028
  0
LINE
  8
0
 10
-15.0334
 20
18.6028
 11
-15.2866
 21
18.5259
  0
LINE
  8
0
 10
-15.2866
 20
18.5259
 11
-15.55
 21
18.5
  0
LINE
  8
0
 10
-15.55
 20
18.5
 11
-15.8134
 21
18.5259
  0
LINE
  8
0
 10
-0.360916
 20
16.1855
 11
-0.707962
 21
16.2908
  0
LINE
  8
0
 10
-0.707962
 20
16.2908
 11
-1.0278
 21
16.4618
  0
LINE
  8
0
 10
-1.0278
 20
16.4618
 11
-1.30814
 21
16.6918
  0
LINE
  8
0
 10
-1.30814
 20
16.6918
 11
-1.53821
 21
16.9722
  0
LINE
  8
0
 10
-1.53821
 20
16.9722
 11
-1.70917
 21
17.292
  0
LINE
  8
0
 10
-1.70917
 20
17.292
 11
-1.81444
 21
17.6391
  0
LINE
  8
0
 10
-1.81444
 20
17.6391
 11
-1.84999
 21
18
  0
LINE
  8
0
 10
-1.84999
 20
18
 11
-1.81444
 21
18.3609
  0
LINE
  8
0
 10
-1.81444
 20
18.3609
 11
-1.70917
 21
18.708
  0
LINE
  8
0
 10
-1.70917
 20
18.708
 11
-1.53821
 21
19.0278
  0
LINE
  8
0
 10
-1.53821
 20
19.0278
 11
-1.30814
 21
19.3081
  0
LINE
  8
0
 10
-1.30814
 20
19.3081
 11
-1.0278
 21
19.5382
  0
LINE
  8
0
 10
-1.0278
 20
19.5382
 11
-0.707962
 21
19.7092
  0
LINE
  8
0
 10
-0.707962
 20
19.7092
 11
-0.360916
 21
19.8144
  0
LINE
  8
0
 10
-0.360916
 20
19.8144
 11
0
 21
19.85
  0
LINE
  8
0
 10
0
 20
19.85
 11
0.360916
 21
19.8144
  0
LINE
  8
0
 10
0.360916
 20
19.8144
 11
0.707962
 21
19.7092
  0
LINE
  8
0
 10
0.707962
 20
19.7092
 11
1.0278
 21
19.5382
  0
LINE
  8
0
 10
1.0278
 20
19.5382
 11
1.30814
 21
19.3081
  0
LINE
  8
0
 10
1.30814
 20
19.3081
 11
1.53821
 21
19.0278
  0
LINE
  8
0
 10
1.53821
 20
19.0278
 11
1.70917
 21
18.708
  0
LINE
  8
0
 10
1.70917
 20
18.708
 11
1.81444
 21
18.3609
  0
LINE
  8
0
 10
1.81444
 20
18.3609
 11
1.84999
 21
18
  0
LINE
  8
0
 10
1.84999
 20
18
 11
1.81444
 21
17.6391
  0
LINE
  8
0
 10
1.81444
 20
17.6391
 11
1.70917
 21
17.292
  0
LINE
  8
0
 10
1.70917
 20
17.292
 11
1.53821
 21
16.9722
  0
LINE
  8
0
 10
1.53821
 20
16.9722
 11
1.30814
 21
16.6918
  0
LINE
  8
0
 10
1.30814
 20
16.6918
 11
1.0278
 21
16.4618
  0
LINE
  8
0
 10
1.0278
 20
16.4618
 11
0.707962
 21
16.2908
  0
LINE
  8
0
 10
0.707962
 20
16.2908
 11
0.360916
 21
16.1855
  0
LINE
  8
0
 10
0.360916
 20
16.1855
 11
0
 21
16.15
  0
LINE
  8
0
 10
0
 20
16.15
 11
-0.360916
 21
16.1855
  0
LINE
  8
0
 10
-35.85
 20
-11.045
 11
-36.3377
 21
-10.9969
  0
LINE
  8
0
 10
-36.3377
 20
-10.9969
 11
-36.8067
 21
-10.8547
  0
LINE
  8
0
 10
-36.8067
 20
-10.8547
 11
-37.2389
 21
-10.6237
  0
LINE
  8
0
 10
-37.2389
 20
-10.6237
 11
-37.6178
 21
-10.3128
  0
LINE
  8
0
 10
-37.6178
 20
-10.3128
 11
-37.9286
 21
-9.93391
  0
LINE
  8
0
 10
-37.9286
 20
-9.93391
 11
-38.1597
 21
-9.50169
  0
LINE
  8
0
 10
-38.1597
 20
-9.50169
 11
-38.3019
 21
-9.03271
  0
LINE
  8
0
 10
-38.3019
 20
-9.03271
 11
-38.35
 21
-8.545
  0
LINE
  8
0
 10
-38.35
 20
-8.545
 11
-38.35
 21
-8.2
  0
LINE
  8
0
 10
-38.35
 20
-8.2
 11
-48.1
 21
-8.2
  0
LINE
  8
0
 10
-48.1
 20
-8.2
 11
-48.1
 21
1.79999
  0
LINE
  8
0
 10
-48.1
 20
1.79999
 11
-38.35
 21
1.79999
  0
LINE
  8
0
 10
-38.35
 20
1.79999
 11
-38.35
 21
8.545
  0
LINE
  8
0
 10
-38.35
 20
8.545
 11
-38.3019
 21
9.03271
  0
LINE
  8
0
 10
-38.3019
 20
9.03271
 11
-38.1597
 21
9.50169
  0
LINE
  8
0
 10
-38.1597
 20
9.50169
 11
-37.9286
 21
9.93391
  0
LINE
  8
0
 10
-37.9286
 20
9.93391
 11
-37.6178
 21
10.3128
  0
LINE
  8
0
 10
-37.6178
 20
10.3128
 11
-37.2389
 21
10.6237
  0
LINE
  8
0
 10
-37.2389
 20
10.6237
 11
-36.8067
 21
10.8547
  0
LINE
  8
0
 10
-36.8067
 20
10.8547
 11
-36.3377
 21
10.9969
  0
LINE
  8
0
 10
-36.3377
 20
10.9969
 11
-35.85
 21
11.045
  0
LINE
  8
0
 10
-35.85
 20
11.045
 11
-21.05
 21
11.045
  0
LINE
  8
0
 10
-21.05
 20
11.045
 11
-21.05
 21
8.25
  0
LINE
  8
0
 10
-21.05
 20
8.25
 11
-20.9818
 21
7.73238
  0
LINE
  8
0
 10
-20.9818
 20
7.73238
 11
-20.782
 21
7.25
  0
LINE
  8
0
 10
-20.782
 20
7.25
 11
-20.4642
 21
6.8358
  0
LINE
  8
0
 10
-20.4642
 20
6.8358
 11
-20.05
 21
6.51796
  0
LINE
  8
0
 10
-20.05
 20
6.51796
 11
-19.5676
 21
6.31816
  0
LINE
  8
0
 10
-19.5676
 20
6.31816
 11
-19.05
 21
6.25
  0
LINE
  8
0
 10
-19.05
 20
6.25
 11
-18.5324
 21
6.31816
  0
LINE
  8
0
 10
-18.5324
 20
6.31816
 11
-18.05
 21
6.51796
  0
LINE
  8
0
 10
-18.05
 20
6.51796
 11
-17.6358
 21
6.8358
  0
LINE
  8
0
 10
-17.6358
 20
6.8358
 11
-17.3179
 21
7.25
  0
LINE
  8
0
 10
-17.3179
 20
7.25
 11
-17.1181
 21
7.73238
  0
LINE
  8
0
 10
-17.1181
 20
7.73238
 11
-17.05
 21
8.25
  0
LINE
  8
0
 10
-17.05
 20
8.25
 11
-17.05
 21
11.045
  0
LINE
  8
0
 10
-17.05
 20
11.045
 11
17.05
 21
11.045
  0
LINE
  8
0
 10
17.05
 20
11.045
 11
17.05
 21
8.25
  0
LINE
  8
0
 10
17.05
 20
8.25
 11
17.1181
 21
7.73238
  0
LINE
  8
0
 10
17.1181
 20
7.73238
 11
17.3179
 21
7.25
  0
LINE
  8
0
 10
17.3179
 20
7.25
 11
17.6358
 21
6.8358
  0
LINE
  8
0
 10
17.6358
 20
6.8358
 11
18.05
 21
6.51796
  0
LINE
  8
0
 10
18.05
 20
6.51796
 11
18.5324
 21
6.31816
  0
LINE
  8
0
 10
18.5324
 20
6.31816
 11
19.05
 21
6.25
  0
LINE
  8
0
 10
19.05
 20
6.25
 11
19.5676
 21
6.31816
  0
LINE
  8
0
 10
19.5676
 20
6.31816
 11
20.05
 21
6.51796
  0
LINE
  8
0
 10
20.05
 20
6.51796
 11
20.4642
 21
6.8358
  0
LINE
  8
0
 10
20.4642
 20
6.8358
 11
20.782
 21
7.25
  0
LINE
  8
0
 10
20.782
 20
7.25
 11
20.9818
 21
7.73238
  0
LINE
  8
0
 10
20.9818
 20
7.73238
 11
21.05
 21
8.25
  0
LINE
  8
0
 10
21.05
 20
8.25
 11
21.05
 21
11.045
  0
LINE
  8
0
 10
21.05
 20
11.045
 11
35.85
 21
11.045
  0
LINE
  8
0
 10
35.85
 20
11.045
 11
36.3377
 21
10.9969
  0
LINE
  8
0
 10
36.3377
 20
10.9969
 11
36.8067
 21
10.8547
  0
LINE
  8
0
 10
36.8067
 20
10.8547
 11
37.2389
 21
10.6237
  0
LINE
  8
0
 10
37.2389
 20
10.6237
 11
37.6178
 21
10.3128
  0
LINE
  8
0
 10
37.6178
 20
10.3128
 11
37.9286
 21
9.93391
  0
LINE
  8
0
 10
37.9286
 20
9.93391
 11
38.1597
 21
9.50169
  0
LINE
  8
0
 10
38.1597
 20
9.50169
 11
38.3019
 21
9.03271
  0
LINE
  8
0
 10
38.3019
 20
9.03271
 11
38.35
 21
8.545
  0
LINE
  8
0
 10
38.35
 20
8.545
 11
38.35
 21
1.79999
  0
LINE
  8
0
 10
38.35
 20
1.79999
 11
48.1
 21
1.79999
  0
LINE
  8
0
 10
48.1
 20
1.79999
 11
48.1
 21
-8.2
  0
LINE
  8
0
 10
48.1
 20
-8.2
 11
38.35
 21
-8.2
  0
LINE
  8
0
 10
38.35
 20
-8.2
 11
38.35
 21
-8.545
  0
LINE
  8
0
 10
38.35
 20
-8.545
 11
38.3019
 21
-9.03271
  0
LINE
  8
0
 10
38.3019
 20
-9.03271
 11
38.1597
 21
-9.50169
  0
LINE
  8
0
 10
38.1597
 20
-9.50169
 11
37.9286
 21
-9.93391
  0
LINE
  8
0
 10
37.9286
 20
-9.93391
 11
37.6178
 21
-10.3128
  0
LINE
  8
0
 10
37.6178
 20
-10.3128
 11
37.2389
 21
-10.6237
  0
LINE
  8
0
 10
37.2389
 20
-10.6237
 11
36.8067
 21
-10.8547
  0
LINE
  8
0
 10
36.8067
 20
-10.8547
 11
36.3377
 21
-10.9969
  0
LINE
  8
0
 10
36.3377
 20
-10.9969
 11
35.85
 21
-11.045
  0
LINE
  8
0
 10
35.85
 20
-11.045
 11
21.05
 21
-11.045
  0
LINE
  8
0
 10
21.05
 20
-11.045
 11
21.05
 21
-8.25
  0
LINE
  8
0
 10
21.05
 20
-8.25
 11
20.9818
 21
-7.73238
  0
LINE
  8
0
 10
20.9818
 20
-7.73238
 11
20.782
 21
-7.25
  0
LINE
  8
0
 10
20.782
 20
-7.25
 11
20.4642
 21
-6.8358
  0
LINE
  8
0
 10
20.4642
 20
-6.8358
 11
20.05
 21
-6.51796
  0
LINE
  8
0
 10
20.05
 20
-6.51796
 11
19.5676
 21
-6.31816
  0
LINE
  8
0
 10
19.5676
 20
-6.31816
 11
19.05
 21
-6.25
  0
LINE
  8
0
 10
19.05
 20
-6.25
 11
18.5324
 21
-6.31816
  0
LINE
  8
0
 10
18.5324
 20
-6.31816
 11
18.05
 21
-6.51796
  0
LINE
  8
0
 10
18.05
 20
-6.51796
 11
17.6358
 21
-6.8358
  0
LINE
  8
0
 10
17.6358
 20
-6.8358
 11
17.3179
 21
-7.25
  0
LINE
  8
0
 10
17.3179
 20
-7.25
 11
17.1181
 21
-7.73238
  0
LINE
  8
0
 10
17.1181
 20
-7.73238
 11
17.05
 21
-8.25
  0
LINE
  8
0
 10
17.05
 20
-8.25
 11
17.05
 21
-11.045
  0
LINE
  8
0
 10
17.05
 20
-11.045
 11
-17.05
 21
-11.045
  0
LINE
  8
0
 10
-17.05
 20
-11.045
 11
-17.05
 21
-8.25
  0
LINE
  8
0
 10
-17.05
 20
-8.25
 11
-17.1181
 21
-7.73238
  0
LINE
  8
0
 10
-17.1181
 20
-7.73238
 11
-17.3179
 21
-7.25
  0
LINE
  8
0
 10
-17.3179
 20
-7.25
 11
-17.6358
 21
-6.8358
  0
LINE
  8
0
 10
-17.6358
 20
-6.8358
 11
-18.05
 21
-6.51796
  0
LINE
  8
0
 10
-18.05
 20
-6.51796
 11
-18.5324
 21
-6.31816
  0
LINE
  8
0
 10
-18.5324
 20
-6.31816
 11
-19.05
 21
-6.25
  0
LINE
  8
0
 10
-19.05
 20
-6.25
 11
-19.5676
 21
-6.31816
  0
LINE
  8
0
 10
-19.5676
 20
-6.31816
 11
-20.05
 21
-6.51796
  0
LINE
  8
0
 10
-20.05
 20
-6.51796
 11
-20.4642
 21
-6.8358
  0
LINE
  8
0
 10
-20.4642
 20
-6.8358
 11
-20.782
 21
-7.25
  0
LINE
  8
0
 10
-20.782
 20
-7.25
 11
-20.9818
 21
-7.73238
  0
LINE
  8
0
 10
-20.9818
 20
-7.73238
 11
-21.05
 21
-8.25
  0
LINE
  8
0
 10
-21.05
 20
-8.25
 11
-21.05
 21
-11.045
  0
LINE
  8
0
 10
-21.05
 20
-11.045
 11
-35.85
 21
-11.045
  0
LINE
  8
0
 10
18.7866
 20
6.92593
 11
18.5334
 21
7.00276
  0
LINE
  8
0
 10
18.5334
 20
7.00276
 11
18.3
 21
7.1275
  0
LINE
  8
0
 10
18.3
 20
7.1275
 11
18.0954
 21
7.29539
  0
LINE
  8
0
 10
18.0954
 20
7.29539
 11
17.9275
 21
7.49997
  0
LINE
  8
0
 10
17.9275
 20
7.49997
 11
17.8027
 21
7.73337
  0
LINE
  8
0
 10
17.8027
 20
7.73337
 11
17.7259
 21
7.98662
  0
LINE
  8
0
 10
17.7259
 20
7.98662
 11
17.7
 21
8.25
  0
LINE
  8
0
 10
17.7
 20
8.25
 11
17.7259
 21
8.51337
  0
LINE
  8
0
 10
17.7259
 20
8.51337
 11
17.8027
 21
8.76662
  0
LINE
  8
0
 10
17.8027
 20
8.76662
 11
17.9275
 21
9.00002
  0
LINE
  8
0
 10
17.9275
 20
9.00002
 11
18.0954
 21
9.20459
  0
LINE
  8
0
 10
18.0954
 20
9.20459
 11
18.3
 21
9.37248
  0
LINE
  8
0
 10
18.3
 20
9.37248
 11
18.5334
 21
9.49722
  0
LINE
  8
0
 10
18.5334
 20
9.49722
 11
18.7866
 21
9.57405
  0
LINE
  8
0
 10
18.7866
 20
9.57405
 11
19.05
 21
9.59999
  0
LINE
  8
0
 10
19.05
 20
9.59999
 11
19.3134
 21
9.57405
  0
LINE
  8
0
 10
19.3134
 20
9.57405
 11
19.5666
 21
9.49722
  0
LINE
  8
0
 10
19.5666
 20
9.49722
 11
19.8
 21
9.37248
  0
LINE
  8
0
 10
19.8
 20
9.37248
 11
20.0046
 21
9.20459
  0
LINE
  8
0
 10
20.0046
 20
9.20459
 11
20.1725
 21
9.00002
  0
LINE
  8
0
 10
20.1725
 20
9.00002
 11
20.2972
 21
8.76662
  0
LINE
  8
0
 10
20.2972
 20
8.76662
 11
20.3741
 21
8.51337
  0
LINE
  8
0
 10
20.3741
 20
8.51337
 11
20.4
 21
8.25
  0
LINE
  8
0
 10
20.4
 20
8.25
 11
20.3741
 21
7.98662
  0
LINE
  8
0
 10
20.3741
 20
7.98662
 11
20.2972
 21
7.73337
  0
LINE
  8
0
 10
20.2972
 20
7.73337
 11
20.1725
 21
7.49997
  0
LINE
  8
0
 10
20.1725
 20
7.49997
 11
20.0046
 21
7.29539
  0
LINE
  8
0
 10
20.0046
 20
7.29539
 11
19.8
 21
7.1275
  0
LINE
  8
0
 10
19.8
 20
7.1275
 11
19.5666
 21
7.00276
  0
LINE
  8
0
 10
19.5666
 20
7.00276
 11
19.3134
 21
6.92593
  0
LINE
  8
0
 10
19.3134
 20
6.92593
 11
19.05
 21
6.89999
  0
LINE
  8
0
 10
19.05
 20
6.89999
 11
18.7866
 21
6.92593
  0
LINE
  8
0
 10
-19.3134
 20
6.92593
 11
-19.5666
 21
7.00276
  0
LINE
  8
0
 10
-19.5666
 20
7.00276
 11
-19.8
 21
7.1275
  0
LINE
  8
0
 10
-19.8
 20
7.1275
 11
-20.0046
 21
7.29539
  0
LINE
  8
0
 10
-20.0046
 20
7.29539
 11
-20.1725
 21
7.49997
  0
LINE
  8
0
 10
-20.1725
 20
7.49997
 11
-20.2972
 21
7.73337
  0
LINE
  8
0
 10
-20.2972
 20
7.73337
 11
-20.3741
 21
7.98662
  0
LINE
  8
0
 10
-20.3741
 20
7.98662
 11
-20.4
 21
8.25
  0
LINE
  8
0
 10
-20.4
 20
8.25
 11
-20.3741
 21
8.51337
  0
LINE
  8
0
 10
-20.3741
 20
8.51337
 11
-20.2972
 21
8.76662
  0
LINE
  8
0
 10
-20.2972
 20
8.76662
 11
-20.1725
 21
9.00002
  0
LINE
  8
0
 10
-20.1725
 20
9.00002
 11
-20.0046
 21
9.20459
  0
LINE
  8
0
 10
-20.0046
 20
9.20459
 11
-19.8
 21
9.37248
  0
LINE
  8
0
 10
-19.8
 20
9.37248
 11
-19.5666
 21
9.49722
  0
LINE
  8
0
 10
-19.5666
 20
9.49722
 11
-19.3134
 21
9.57405
  0
LINE
  8
0
 10
-19.3134
 20
9.57405
 11
-19.05
 21
9.59999
  0
LINE
  8
0
 10
-19.05
 20
9.59999
 11
-18.7866
 21
9.57405
  0
LINE
  8
0
 10
-18.7866
 20
9.57405
 11
-18.5334
 21
9.49722
  0
LINE
  8
0
 10
-18.5334
 20
9.49722
 11
-18.3
 21
9.37248
  0
LINE
  8
0
 10
-18.3
 20
9.37248
 11
-18.0954
 21
9.20459
  0
LINE
  8
0
 10
-18.0954
 20
9.20459
 11
-17.9275
 21
9.00002
  0
LINE
  8
0
 10
-17.9275
 20
9.00002
 11
-17.8027
 21
8.76662
  0
LINE
  8
0
 10
-17.8027
 20
8.76662
 11
-17.7259
 21
8.51337
  0
LINE
  8
0
 10
-17.7259
 20
8.51337
 11
-17.7
 21
8.25
  0
LINE
  8
0
 10
-17.7
 20
8.25
 11
-17.7259
 21
7.98662
  0
LINE
  8
0
 10
-17.7259
 20
7.98662
 11
-17.8027
 21
7.73337
  0
LINE
  8
0
 10
-17.8027
 20
7.73337
 11
-17.9275
 21
7.49997
  0
LINE
  8
0
 10
-17.9275
 20
7.49997
 11
-18.0954
 21
7.29539
  0
LINE
  8
0
 10
-18.0954
 20
7.29539
 11
-18.3
 21
7.1275
  0
LINE
  8
0
 10
-18.3
 20
7.1275
 11
-18.5334
 21
7.00276
  0
LINE
  8
0
 10
-18.5334
 20
7.00276
 11
-18.7866
 21
6.92593
  0
LINE
  8
0
 10
-18.7866
 20
6.92593
 11
-19.05
 21
6.89999
  0
LINE
  8
0
 10
-19.05
 20
6.89999
 11
-19.3134
 21
6.92593
  0
LINE
  8
0
 10
18.7866
 20
-9.57405
 11
18.5334
 21
-9.49722
  0
LINE
  8
0
 10
18.5334
 20
-9.49722
 11
18.3
 21
-9.37248
  0
LINE
  8
0
 10
18.3
 20
-9.37248
 11
18.0954
 21
-9.20459
  0
LINE
  8
0
 10
18.0954
 20
-9.20459
 11
17.9275
 21
-9.00002
  0
LINE
  8
0
 10
17.9275
 20
-9.00002
 11
17.8027
 21
-8.76662
  0
LINE
  8
0
 10
17.8027
 20
-8.76662
 11
17.7259
 21
-8.51337
  0
LINE
  8
0
 10
17.7259
 20
-8.51337
 11
17.7
 21
-8.25
  0
LINE
  8
0
 10
17.7
 20
-8.25
 11
17.7259
 21
-7.98662
  0
LINE
  8
0
 10
17.7259
 20
-7.98662
 11
17.8027
 21
-7.73337
  0
LINE
  8
0
 10
17.8027
 20
-7.73337
 11
17.9275
 21
-7.49997
  0
LINE
  8
0
 10
17.9275
 20
-7.49997
 11
18.0954
 21
-7.29539
  0
LINE
  8
0
 10
18.0954
 20
-7.29539
 11
18.3
 21
-7.1275
  0
LINE
  8
0
 10
18.3
 20
-7.1275
 11
18.5334
 21
-7.00276
  0
LINE
  8
0
 10
18.5334
 20
-7.00276
 11
18.7866
 21
-6.92593
  0
LINE
  8
0
 10
18.7866
 20
-6.92593
 11
19.05
 21
-6.89999
  0
LINE
  8
0
 10
19.05
 20
-6.89999
 11
19.3134
 21
-6.92593
  0
LINE
  8
0
 10
19.3134
 20
-6.92593
 11
19.5666
 21
-7.00276
  0
LINE
  8
0
 10
19.5666
 20
-7.00276
 11
19.8
 21
-7.1275
  0
LINE
  8
0
 10
19.8
 20
-7.1275
 11
20.0046
 21
-7.29539
  0
LINE
  8
0
 10
20.0046
 20
-7.29539
 11
20.1725
 21
-7.49997
  0
LINE
  8
0
 10
20.1725
 20
-7.49997
 11
20.2972
 21
-7.73337
  0
LINE
  8
0
 10
20.2972
 20
-7.73337
 11
20.3741
 21
-7.98662
  0
LINE
  8
0
 10
20.3741
 20
-7.98662
 11
20.4
 21
-8.25
  0
LINE
  8
0
 10
20.4
 20
-8.25
 11
20.3741
 21
-8.51337
  0
LINE
  8
0
 10
20.3741
 20
-8.51337
 11
20.2972
 21
-8.76662
  0
LINE
  8
0
 10
20.2972
 20
-8.76662
 11
20.1725
 21
-9.00002
  0
LINE
  8
0
 10
20.1725
 20
-9.00002
 11
20.0046
 21
-9.20459
  0
LINE
  8
0
 10
20.0046
 20
-9.20459
 11
19.8
 21
-9.37248
  0
LINE
  8
0
 10
19.8
 20
-9.37248
 11
19.5666
 21
-9.49722
  0
LINE
  8
0
 10
19.5666
 20
-9.49722
 11
19.3134
 21
-9.57405
  0
LINE
  8
0
 10
19.3134
 20
-9.57405
 11
19.05
 21
-9.59999
  0
LINE
  8
0
 10
19.05
 20
-9.59999
 11
18.7866
 21
-9.57405
  0
LINE
  8
0
 10
-19.3134
 20
-9.57405
 11
-19.5666
 21
-9.49722
  0
LINE
  8
0
 10
-19.5666
 20
-9.49722
 11
-19.8
 21
-9.37248
  0
LINE
  8
0
 10
-19.8
 20
-9.37248
 11
-20.0046
 21
-9.20459
  0
LINE
  8
0
 10
-20.0046
 20
-9.20459
 11
-20.1725
 21
-9.00002
  0
LINE
  8
0
 10
-20.1725
 20
-9.00002
 11
-20.2972
 21
-8.76662
  0
LINE
  8
0
 10
-20.2972
 20
-8.76662
 11
-20.3741
 21
-8.51337
  0
LINE
  8
0
 10
-20.3741
 20
-8.51337
 11
-20.4
 21
-8.25
  0
LINE
  8
0
 10
-20.4
 20
-8.25
 11
-20.3741
 21
-7.98662
  0
LINE
  8
0
 10
-20.3741
 20
-7.98662
 11
-20.2972
 21
-7.73337
  0
LINE
  8
0
 10
-20.2972
 20
-7.73337
 11
-20.1725
 21
-7.49997
  0
LINE
  8
0
 10
-20.1725
 20
-7.49997
 11
-20.0046
 21
-7.29539
  0
LINE
  8
0
 10
-20.0046
 20
-7.29539
 11
-19.8
 21
-7.1275
  0
LINE
  8
0
 10
-19.8
 20
-7.1275
 11
-19.5666
 21
-7.00276
  0
LINE
  8
0
 10
-19.5666
 20
-7.00276
 11
-19.3134
 21
-6.92593
  0
LINE
  8
0
 10
-19.3134
 20
-6.92593
 11
-19.05
 21
-6.89999
  0
LINE
  8
0
 10
-19.05
 20
-6.89999
 11
-18.7866
 21
-6.92593
  0
LINE
  8
0
 10
-18.7866
 20
-6.92593
 11
-18.5334
 21
-7.00276
  0
LINE
  8
0
 10
-18.5334
 20
-7.00276
 11
-18.3
 21
-7.1275
  0
LINE
  8
0
 10
-18.3
 20
-7.1275
 11
-18.0954
 21
-7.29539
  0
LINE
  8
0
 10
-18.0954
 20
-7.29539
 11
-17.9275
 21
-7.49997
  0
LINE
  8
0
 10
-17.9275
 20
-7.49997
 11
-17.8027
 21
-7.73337
  0
LINE
  8
0
 10
-17.8027
 20
-7.73337
 11
-17.7259
 21
-7.98662
  0
LINE
  8
0
 10
-17.7259
 20
-7.98662
 11
-17.7
 21
-8.25
  0
LINE
  8
0
 10
-17.7
 20
-8.25
 11
-17.7259
 21
-8.51337
  0
LINE
  8
0
 10
-17.7259
 20
-8.51337
 11
-17.8027
 21
-8.76662
  0
LINE
  8
0
 10
-17.8027
 20
-8.76662
 11
-17.9275
 21
-9.00002
  0
LINE
  8
0
 10
-17.9275
 20
-9.00002
 11
-18.0954
 21
-9.20459
  0
LINE
  8
0
 10
-18.0954
 20
-9.20459
 11
-18.3
 21
-9.37248
  0
LINE
  8
0
 10
-18.3
 20
-9.37248
 11
-18.5334
 21
-9.49722
  0
LINE
  8
0
 10
-18.5334
 20
-9.49722
 11
-18.7866
 21
-9.57405
  0
LINE
  8
0
 10
-18.7866
 20
-9.57405
 11
-19.05
 21
-9.59999
  0
LINE
  8
0
 10
-19.05
 20
-9.59999
 11
-19.3134
 21
-9.57405
  0
LINE
  8
0
 10
54.6391
 20
-15.8144
 11
54.292
 21
-15.7092
  0
LINE
  8
0
 10
54.292
 20
-15.7092
 11
53.9722
 21
-15.5382
  0
LINE
  8
0
 10
53.9722
 20
-15.5382
 11
53.6918
 21
-15.3081
  0
LINE
  8
0
 10
53.6918
 20
-15.3081
 11
53.4618
 21
-15.0278
  0
LINE
  8
0
 10
53.4618
 20
-15.0278
 11
53.2908
 21
-14.708
  0
LINE
  8
0
 10
53.2908
 20
-14.708
 11
53.1855
 21
-14.3609
  0
LINE
  8
0
 10
53.1855
 20
-14.3609
 11
53.15
 21
-14
  0
LINE
  8
0
 10
53.15
 20
-14
 11
53.1855
 21
-13.6391
  0
LINE
  8
0
 10
53.1855
 20
-13.6391
 11
53.2908
 21
-13.292
  0
LINE
  8
0
 10
53.2908
 20
-13.292
 11
53.4618
 21
-12.9722
  0
LINE
  8
0
 10
53.4618
 20
-12.9722
 11
53.6918
 21
-12.6918
  0
LINE
  8
0
 10
53.6918
 20
-12.6918
 11
53.9722
 21
-12.4618
  0
LINE
  8
0
 10
53.9722
 20
-12.4618
 11
54.292
 21
-12.2908
  0
LINE
  8
0
 10
54.292
 20
-12.2908
 11
54.6391
 21
-12.1855
  0
LINE
  8
0
 10
54.6391
 20
-12.1855
 11
55
 21
-12.15
  0
LINE
  8
0
 10
55
 20
-12.15
 11
55.3609
 21
-12.1855
  0
LINE
  8
0
 10
55.3609
 20
-12.1855
 11
55.708
 21
-12.2908
  0
LINE
  8
0
 10
55.708
 20
-12.2908
 11
56.0278
 21
-12.4618
  0
LINE
  8
0
 10
56.0278
 20
-12.4618
 11
56.3081
 21
-12.6918
  0
LINE
  8
0
 10
56.3081
 20
-12.6918
 11
56.5382
 21
-12.9722
  0
LINE
  8
0
 10
56.5382
 20
-12.9722
 11
56.7092
 21
-13.292
  0
LINE
  8
0
 10
56.7092
 20
-13.292
 11
56.8144
 21
-13.6391
  0
LINE
  8
0
 10
56.8144
 20
-13.6391
 11
56.85
 21
-14
  0
LINE
  8
0
 10
56.85
 20
-14
 11
56.8144
 21
-14.3609
  0
LINE
  8
0
 10
56.8144
 20
-14.3609
 11
56.7092
 21
-14.708
  0
LINE
  8
0
 10
56.7092
 20
-14.708
 11
56.5382
 21
-15.0278
  0
LINE
  8
0
 10
56.5382
 20
-15.0278
 11
56.3081
 21
-15.3081
  0
LINE
  8
0
 10
56.3081
 20
-15.3081
 11
56.0278
 21
-15.5382
  0
LINE
  8
0
 10
56.0278
 20
-15.5382
 11
55.708
 21
-15.7092
  0
LINE
  8
0
 10
55.708
 20
-15.7092
 11
55.3609
 21
-15.8144
  0
LINE
  8
0
 10
55.3609
 20
-15.8144
 11
55
 21
-15.85
  0
LINE
  8
0
 10
55
 20
-15.85
 11
54.6391
 21
-15.8144
  0
LINE
  8
0
 10
-55.3609
 20
-15.8144
 11
-55.708
 21
-15.7092
  0
LINE
  8
0
 10
-55.708
 20
-15.7092
 11
-56.0278
 21
-15.5382
  0
LINE
  8
0
 10
-56.0278
 20
-15.5382
 11
-56.3081
 21
-15.3081
  0
LINE
  8
0
 10
-56.3081
 20
-15.3081
 11
-56.5382
 21
-15.0278
  0
LINE
  8
0
 10
-56.5382
 20
-15.0278
 11
-56.7092
 21
-14.708
  0
LINE
  8
0
 10
-56.7092
 20
-14.708
 11
-56.8144
 21
-14.3609
  0
LINE
  8
0
 10
-56.8144
 20
-14.3609
 11
-56.85
 21
-14
  0
LINE
  8
0
 10
-56.85
 20
-14
 11
-56.8144
 21
-13.6391
  0
LINE
  8
0
 10
-56.8144
 20
-13.6391
 11
-56.7092
 21
-13.292
  0
LINE
  8
0
 10
-56.7092
 20
-13.292
 11
-56.5382
 21
-12.9722
  0
LINE
  8
0
 10
-56.5382
 20
-12.9722
 11
-56.3081
 21
-12.6918
  0
LINE
  8
0
 10
-56.3081
 20
-12.6918
 11
-56.0278
 21
-12.4618
  0
LINE
  8
0
 10
-56.0278
 20
-12.4618
 11
-55.708
 21
-12.2908
  0
LINE
  8
0
 10
-55.708
 20
-12.2908
 11
-55.3609
 21
-12.1855
  0
LINE
  8
0
 10
-55.3609
 20
-12.1855
 11
-55
 21
-12.15
  0
LINE
  8
0
 10
-55
 20
-12.15
 11
-54.6391
 21
-12.1855
  0
LINE
  8
0
 10
-54.6391
 20
-12.1855
 11
-54.292
 21
-12.2908
  0
LINE
  8
0
 10
-54.292
 20
-12.2908
 11
-53.9722
 21
-12.4618
  0
LINE
  8
0
 10
-53.9722
 20
-12.4618
 11
-53.6918
 21
-12.6918
  0
LINE
  8
0
 10
-53.6918
 20
-12.6918
 11
-53.4618
 21
-12.9722
  0
LINE
  8
0
 10
-53.4618
 20
-12.9722
 11
-53.2908
 21
-13.292
  0
LINE
  8
0
 10
-53.2908
 20
-13.292
 11
-53.1855
 21
-13.6391
  0
LINE
  8
0
 10
-53.1855
 20
-13.6391
 11
-53.15
 21
-14
  0
LINE
  8
0
 10
-53.15
 20
-14
 11
-53.1855
 21
-14.3609
  0
LINE
  8
0
 10
-53.1855
 20
-14.3609
 11
-53.2908
 21
-14.708
  0
LINE
  8
0
 10
-53.2908
 20
-14.708
 11
-53.4618
 21
-15.0278
  0
LINE
  8
0
 10
-53.4618
 20
-15.0278
 11
-53.6918
 21
-15.3081
  0
LINE
  8
0
 10
-53.6918
 20
-15.3081
 11
-53.9722
 21
-15.5382
  0
LINE
  8
0
 10
-53.9722
 20
-15.5382
 11
-54.292
 21
-15.7092
  0
LINE
  8
0
 10
-54.292
 20
-15.7092
 11
-54.6391
 21
-15.8144
  0
LINE
  8
0
 10
-54.6391
 20
-15.8144
 11
-55
 21
-15.85
  0
LINE
  8
0
 10
-55
 20
-15.85
 11
-55.3609
 21
-15.8144
  0
ENDSEC
  0
SECTION
  2
OBJECTS
  0
DICTIONARY
  0
ENDSEC
  0
EOF
