  0
SECTION
  2
BLOCKS
  0
ENDSEC
  0
SECTION
  2
ENTITIES
  0
LINE
  8
0
 10
55.6526
 20
-18.9572
 11
56.2941
 21
-18.8296
  0
LINE
  8
0
 10
56.2941
 20
-18.8296
 11
56.9134
 21
-18.6194
  0
LINE
  8
0
 10
56.9134
 20
-18.6194
 11
57.5
 21
-18.3301
  0
LINE
  8
0
 10
57.5
 20
-18.3301
 11
58.0438
 21
-17.9668
  0
LINE
  8
0
 10
58.0438
 20
-17.9668
 11
58.5355
 21
-17.5355
  0
LINE
  8
0
 10
58.5355
 20
-17.5355
 11
58.9668
 21
-17.0438
  0
LINE
  8
0
 10
58.9668
 20
-17.0438
 11
59.3301
 21
-16.5
  0
LINE
  8
0
 10
59.3301
 20
-16.5
 11
59.6194
 21
-15.9134
  0
LINE
  8
0
 10
59.6194
 20
-15.9134
 11
59.8296
 21
-15.2941
  0
LINE
  8
0
 10
59.8296
 20
-15.2941
 11
59.9572
 21
-14.6526
  0
LINE
  8
0
 10
59.9572
 20
-14.6526
 11
60
 21
-14
  0
LINE
  8
0
 10
60
 20
-14
 11
60
 21
46
  0
LINE
  8
0
 10
60
 20
46
 11
59.9572
 21
46.6526
  0
LINE
  8
0
 10
59.9572
 20
46.6526
 11
59.8296
 21
47.2941
  0
LINE
  8
0
 10
59.8296
 20
47.2941
 11
59.6194
 21
47.9134
  0
LINE
  8
0
 10
59.6194
 20
47.9134
 11
59.3301
 21
48.5
  0
LINE
  8
0
 10
59.3301
 20
48.5
 11
58.9668
 21
49.0438
  0
LINE
  8
0
 10
58.9668
 20
49.0438
 11
58.5355
 21
49.5355
  0
LINE
  8
0
 10
58.5355
 20
49.5355
 11
58.0438
 21
49.9668
  0
LINE
  8
0
 10
58.0438
 20
49.9668
 11
57.5
 21
50.3301
  0
LINE
  8
0
 10
57.5
 20
50.3301
 11
56.9134
 21
50.6194
  0
LINE
  8
0
 10
56.9134
 20
50.6194
 11
56.2941
 21
50.8296
  0
LINE
  8
0
 10
56.2941
 20
50.8296
 11
55.6526
 21
50.9572
  0
LINE
  8
0
 10
55.6526
 20
50.9572
 11
55
 21
51
  0
LINE
  8
0
 10
55
 20
51
 11
-55
 21
51
  0
LINE
  8
0
 10
-55
 20
51
 11
-55.6526
 21
50.9572
  0
LINE
  8
0
 10
-55.6526
 20
50.9572
 11
-56.2941
 21
50.8296
  0
LINE
  8
0
 10
-56.2941
 20
50.8296
 11
-56.9134
 21
50.6194
  0
LINE
  8
0
 10
-56.9134
 20
50.6194
 11
-57.5
 21
50.3301
  0
LINE
  8
0
 10
-57.5
 20
50.3301
 11
-58.0438
 21
49.9668
  0
LINE
  8
0
 10
-58.0438
 20
49.9668
 11
-58.5355
 21
49.5355
  0
LINE
  8
0
 10
-58.5355
 20
49.5355
 11
-58.9668
 21
49.0438
  0
LINE
  8
0
 10
-58.9668
 20
49.0438
 11
-59.3301
 21
48.5
  0
LINE
  8
0
 10
-59.3301
 20
48.5
 11
-59.6194
 21
47.9134
  0
LINE
  8
0
 10
-59.6194
 20
47.9134
 11
-59.8296
 21
47.2941
  0
LINE
  8
0
 10
-59.8296
 20
47.2941
 11
-59.9572
 21
46.6526
  0
LINE
  8
0
 10
-59.9572
 20
46.6526
 11
-60
 21
46
  0
LINE
  8
0
 10
-60
 20
46
 11
-60
 21
-14
  0
LINE
  8
0
 10
-60
 20
-14
 11
-59.9572
 21
-14.6526
  0
LINE
  8
0
 10
-59.9572
 20
-14.6526
 11
-59.8296
 21
-15.2941
  0
LINE
  8
0
 10
-59.8296
 20
-15.2941
 11
-59.6194
 21
-15.9134
  0
LINE
  8
0
 10
-59.6194
 20
-15.9134
 11
-59.3301
 21
-16.5
  0
LINE
  8
0
 10
-59.3301
 20
-16.5
 11
-58.9668
 21
-17.0438
  0
LINE
  8
0
 10
-58.9668
 20
-17.0438
 11
-58.5355
 21
-17.5355
  0
LINE
  8
0
 10
-58.5355
 20
-17.5355
 11
-58.0438
 21
-17.9668
  0
LINE
  8
0
 10
-58.0438
 20
-17.9668
 11
-57.5
 21
-18.3301
  0
LINE
  8
0
 10
-57.5
 20
-18.3301
 11
-56.9134
 21
-18.6194
  0
LINE
  8
0
 10
-56.9134
 20
-18.6194
 11
-56.2941
 21
-18.8296
  0
LINE
  8
0
 10
-56.2941
 20
-18.8296
 11
-55.6526
 21
-18.9572
  0
LINE
  8
0
 10
-55.6526
 20
-18.9572
 11
-55
 21
-19
  0
LINE
  8
0
 10
-55
 20
-19
 11
55
 21
-19
  0
LINE
  8
0
 10
55
 20
-19
 11
55.6526
 21
-18.9572
  0
LINE
  8
0
 10
54.6586
 20
44.2836
 11
54.3303
 21
44.3832
  0
LINE
  8
0
 10
54.3303
 20
44.3832
 11
54.0277
 21
44.5449
  0
LINE
  8
0
 10
54.0277
 20
44.5449
 11
53.7626
 21
44.7626
  0
LINE
  8
0
 10
53.7626
 20
44.7626
 11
53.5449
 21
45.0277
  0
LINE
  8
0
 10
53.5449
 20
45.0277
 11
53.3832
 21
45.3303
  0
LINE
  8
0
 10
53.3832
 20
45.3303
 11
53.2836
 21
45.6586
  0
LINE
  8
0
 10
53.2836
 20
45.6586
 11
53.25
 21
46
  0
LINE
  8
0
 10
53.25
 20
46
 11
53.2836
 21
46.3414
  0
LINE
  8
0
 10
53.2836
 20
46.3414
 11
53.3832
 21
46.6697
  0
LINE
  8
0
 10
53.3832
 20
46.6697
 11
53.5449
 21
46.9722
  0
LINE
  8
0
 10
53.5449
 20
46.9722
 11
53.7626
 21
47.2374
  0
LINE
  8
0
 10
53.7626
 20
47.2374
 11
54.0277
 21
47.4551
  0
LINE
  8
0
 10
54.0277
 20
47.4551
 11
54.3303
 21
47.6168
  0
LINE
  8
0
 10
54.3303
 20
47.6168
 11
54.6586
 21
47.7164
  0
LINE
  8
0
 10
54.6586
 20
47.7164
 11
55
 21
47.75
  0
LINE
  8
0
 10
55
 20
47.75
 11
55.3414
 21
47.7164
  0
LINE
  8
0
 10
55.3414
 20
47.7164
 11
55.6697
 21
47.6168
  0
LINE
  8
0
 10
55.6697
 20
47.6168
 11
55.9722
 21
47.4551
  0
LINE
  8
0
 10
55.9722
 20
47.4551
 11
56.2374
 21
47.2374
  0
LINE
  8
0
 10
56.2374
 20
47.2374
 11
56.4551
 21
46.9722
  0
LINE
  8
0
 10
56.4551
 20
46.9722
 11
56.6168
 21
46.6697
  0
LINE
  8
0
 10
56.6168
 20
46.6697
 11
56.7164
 21
46.3414
  0
LINE
  8
0
 10
56.7164
 20
46.3414
 11
56.75
 21
46
  0
LINE
  8
0
 10
56.75
 20
46
 11
56.7164
 21
45.6586
  0
LINE
  8
0
 10
56.7164
 20
45.6586
 11
56.6168
 21
45.3303
  0
LINE
  8
0
 10
56.6168
 20
45.3303
 11
56.4551
 21
45.0277
  0
LINE
  8
0
 10
56.4551
 20
45.0277
 11
56.2374
 21
44.7626
  0
LINE
  8
0
 10
56.2374
 20
44.7626
 11
55.9722
 21
44.5449
  0
LINE
  8
0
 10
55.9722
 20
44.5449
 11
55.6697
 21
44.3832
  0
LINE
  8
0
 10
55.6697
 20
44.3832
 11
55.3414
 21
44.2836
  0
LINE
  8
0
 10
55.3414
 20
44.2836
 11
55
 21
44.25
  0
LINE
  8
0
 10
55
 20
44.25
 11
54.6586
 21
44.2836
  0
LINE
  8
0
 10
-55.3414
 20
44.2836
 11
-55.6697
 21
44.3832
  0
LINE
  8
0
 10
-55.6697
 20
44.3832
 11
-55.9722
 21
44.5449
  0
LINE
  8
0
 10
-55.9722
 20
44.5449
 11
-56.2374
 21
44.7626
  0
LINE
  8
0
 10
-56.2374
 20
44.7626
 11
-56.4551
 21
45.0277
  0
LINE
  8
0
 10
-56.4551
 20
45.0277
 11
-56.6168
 21
45.3303
  0
LINE
  8
0
 10
-56.6168
 20
45.3303
 11
-56.7164
 21
45.6586
  0
LINE
  8
0
 10
-56.7164
 20
45.6586
 11
-56.75
 21
46
  0
LINE
  8
0
 10
-56.75
 20
46
 11
-56.7164
 21
46.3414
  0
LINE
  8
0
 10
-56.7164
 20
46.3414
 11
-56.6168
 21
46.6697
  0
LINE
  8
0
 10
-56.6168
 20
46.6697
 11
-56.4551
 21
46.9722
  0
LINE
  8
0
 10
-56.4551
 20
46.9722
 11
-56.2374
 21
47.2374
  0
LINE
  8
0
 10
-56.2374
 20
47.2374
 11
-55.9722
 21
47.4551
  0
LINE
  8
0
 10
-55.9722
 20
47.4551
 11
-55.6697
 21
47.6168
  0
LINE
  8
0
 10
-55.6697
 20
47.6168
 11
-55.3414
 21
47.7164
  0
LINE
  8
0
 10
-55.3414
 20
47.7164
 11
-55
 21
47.75
  0
LINE
  8
0
 10
-55
 20
47.75
 11
-54.6586
 21
47.7164
  0
LINE
  8
0
 10
-54.6586
 20
47.7164
 11
-54.3303
 21
47.6168
  0
LINE
  8
0
 10
-54.3303
 20
47.6168
 11
-54.0277
 21
47.4551
  0
LINE
  8
0
 10
-54.0277
 20
47.4551
 11
-53.7626
 21
47.2374
  0
LINE
  8
0
 10
-53.7626
 20
47.2374
 11
-53.5449
 21
46.9722
  0
LINE
  8
0
 10
-53.5449
 20
46.9722
 11
-53.3832
 21
46.6697
  0
LINE
  8
0
 10
-53.3832
 20
46.6697
 11
-53.2836
 21
46.3414
  0
LINE
  8
0
 10
-53.2836
 20
46.3414
 11
-53.25
 21
46
  0
LINE
  8
0
 10
-53.25
 20
46
 11
-53.2836
 21
45.6586
  0
LINE
  8
0
 10
-53.2836
 20
45.6586
 11
-53.3832
 21
45.3303
  0
LINE
  8
0
 10
-53.3832
 20
45.3303
 11
-53.5449
 21
45.0277
  0
LINE
  8
0
 10
-53.5449
 20
45.0277
 11
-53.7626
 21
44.7626
  0
LINE
  8
0
 10
-53.7626
 20
44.7626
 11
-54.0277
 21
44.5449
  0
LINE
  8
0
 10
-54.0277
 20
44.5449
 11
-54.3303
 21
44.3832
  0
LINE
  8
0
 10
-54.3303
 20
44.3832
 11
-54.6586
 21
44.2836
  0
LINE
  8
0
 10
-54.6586
 20
44.2836
 11
-55
 21
44.25
  0
LINE
  8
0
 10
-55
 20
44.25
 11
-55.3414
 21
44.2836
  0
LINE
  8
0
 10
15.5784
 20
17.05
 11
16.9642
 21
18.4358
  0
LINE
  8
0
 10
16.9642
 20
18.4358
 11
17.282
 21
18.85
  0
LINE
  8
0
 10
17.282
 20
18.85
 11
17.4818
 21
19.3324
  0
LINE
  8
0
 10
17.4818
 20
19.3324
 11
17.55
 21
19.85
  0
LINE
  8
0
 10
17.55
 20
19.85
 11
17.4818
 21
20.3676
  0
LINE
  8
0
 10
17.4818
 20
20.3676
 11
17.282
 21
20.85
  0
LINE
  8
0
 10
17.282
 20
20.85
 11
16.9642
 21
21.2642
  0
LINE
  8
0
 10
16.9642
 20
21.2642
 11
16.55
 21
21.582
  0
LINE
  8
0
 10
16.55
 20
21.582
 11
16.0676
 21
21.7818
  0
LINE
  8
0
 10
16.0676
 20
21.7818
 11
15.55
 21
21.85
  0
LINE
  8
0
 10
15.55
 20
21.85
 11
15.0324
 21
21.7818
  0
LINE
  8
0
 10
15.0324
 20
21.7818
 11
14.55
 21
21.582
  0
LINE
  8
0
 10
14.55
 20
21.582
 11
14.1358
 21
21.2642
  0
LINE
  8
0
 10
14.1358
 20
21.2642
 11
12.75
 21
19.8784
  0
LINE
  8
0
 10
12.75
 20
19.8784
 11
12.75
 21
25
  0
LINE
  8
0
 10
12.75
 20
25
 11
3
 21
25
  0
LINE
  8
0
 10
3
 20
25
 11
3
 21
35
  0
LINE
  8
0
 10
3
 20
35
 11
12.75
 21
35
  0
LINE
  8
0
 10
12.75
 20
35
 11
12.75
 21
40.1216
  0
LINE
  8
0
 10
12.75
 20
40.1216
 11
14.1358
 21
38.7358
  0
LINE
  8
0
 10
14.1358
 20
38.7358
 11
14.55
 21
38.418
  0
LINE
  8
0
 10
14.55
 20
38.418
 11
15.0324
 21
38.2182
  0
LINE
  8
0
 10
15.0324
 20
38.2182
 11
15.55
 21
38.15
  0
LINE
  8
0
 10
15.55
 20
38.15
 11
16.0676
 21
38.2182
  0
LINE
  8
0
 10
16.0676
 20
38.2182
 11
16.55
 21
38.418
  0
LINE
  8
0
 10
16.55
 20
38.418
 11
16.9642
 21
38.7358
  0
LINE
  8
0
 10
16.9642
 20
38.7358
 11
17.282
 21
39.15
  0
LINE
  8
0
 10
17.282
 20
39.15
 11
17.4818
 21
39.6324
  0
LINE
  8
0
 10
17.4818
 20
39.6324
 11
17.55
 21
40.15
  0
LINE
  8
0
 10
17.55
 20
40.15
 11
17.4818
 21
40.6676
  0
LINE
  8
0
 10
17.4818
 20
40.6676
 11
17.282
 21
41.15
  0
LINE
  8
0
 10
17.282
 20
41.15
 11
16.9642
 21
41.5642
  0
LINE
  8
0
 10
16.9642
 20
41.5642
 11
15.5784
 21
42.95
  0
LINE
  8
0
 10
15.5784
 20
42.95
 11
35.8216
 21
42.95
  0
LINE
  8
0
 10
35.8216
 20
42.95
 11
34.4358
 21
41.5642
  0
LINE
  8
0
 10
34.4358
 20
41.5642
 11
34.118
 21
41.15
  0
LINE
  8
0
 10
34.118
 20
41.15
 11
33.9182
 21
40.6676
  0
LINE
  8
0
 10
33.9182
 20
40.6676
 11
33.85
 21
40.15
  0
LINE
  8
0
 10
33.85
 20
40.15
 11
33.9182
 21
39.6324
  0
LINE
  8
0
 10
33.9182
 20
39.6324
 11
34.118
 21
39.15
  0
LINE
  8
0
 10
34.118
 20
39.15
 11
34.4358
 21
38.7358
  0
LINE
  8
0
 10
34.4358
 20
38.7358
 11
34.85
 21
38.418
  0
LINE
  8
0
 10
34.85
 20
38.418
 11
35.3324
 21
38.2182
  0
LINE
  8
0
 10
35.3324
 20
38.2182
 11
35.85
 21
38.15
  0
LINE
  8
0
 10
35.85
 20
38.15
 11
36.3676
 21
38.2182
  0
LINE
  8
0
 10
36.3676
 20
38.2182
 11
36.85
 21
38.418
  0
LINE
  8
0
 10
36.85
 20
38.418
 11
37.2642
 21
38.7358
  0
LINE
  8
0
 10
37.2642
 20
38.7358
 11
38.65
 21
40.1216
  0
LINE
  8
0
 10
38.65
 20
40.1216
 11
38.65
 21
35
  0
LINE
  8
0
 10
38.65
 20
35
 11
48.4
 21
35
  0
LINE
  8
0
 10
48.4
 20
35
 11
48.4
 21
25
  0
LINE
  8
0
 10
48.4
 20
25
 11
38.65
 21
25
  0
LINE
  8
0
 10
38.65
 20
25
 11
38.65
 21
19.8784
  0
LINE
  8
0
 10
38.65
 20
19.8784
 11
37.2642
 21
21.2642
  0
LINE
  8
0
 10
37.2642
 20
21.2642
 11
36.85
 21
21.582
  0
LINE
  8
0
 10
36.85
 20
21.582
 11
36.3676
 21
21.7818
  0
LINE
  8
0
 10
36.3676
 20
21.7818
 11
35.85
 21
21.85
  0
LINE
  8
0
 10
35.85
 20
21.85
 11
35.3324
 21
21.7818
  0
LINE
  8
0
 10
35.3324
 20
21.7818
 11
34.85
 21
21.582
  0
LINE
  8
0
 10
34.85
 20
21.582
 11
34.4358
 21
21.2642
  0
LINE
  8
0
 10
34.4358
 20
21.2642
 11
34.118
 21
20.85
  0
LINE
  8
0
 10
34.118
 20
20.85
 11
33.9182
 21
20.3676
  0
LINE
  8
0
 10
33.9182
 20
20.3676
 11
33.85
 21
19.85
  0
LINE
  8
0
 10
33.85
 20
19.85
 11
33.9182
 21
19.3324
  0
LINE
  8
0
 10
33.9182
 20
19.3324
 11
34.118
 21
18.85
  0
LINE
  8
0
 10
34.118
 20
18.85
 11
34.4358
 21
18.4358
  0
LINE
  8
0
 10
34.4358
 20
18.4358
 11
35.8215
 21
17.05
  0
LINE
  8
0
 10
35.8215
 20
17.05
 11
15.5784
 21
17.05
  0
LINE
  8
0
 10
-35.8215
 20
17.05
 11
-34.4358
 21
18.4358
  0
LINE
  8
0
 10
-34.4358
 20
18.4358
 11
-34.118
 21
18.85
  0
LINE
  8
0
 10
-34.118
 20
18.85
 11
-33.9182
 21
19.3324
  0
LINE
  8
0
 10
-33.9182
 20
19.3324
 11
-33.85
 21
19.85
  0
LINE
  8
0
 10
-33.85
 20
19.85
 11
-33.9182
 21
20.3676
  0
LINE
  8
0
 10
-33.9182
 20
20.3676
 11
-34.118
 21
20.85
  0
LINE
  8
0
 10
-34.118
 20
20.85
 11
-34.4358
 21
21.2642
  0
LINE
  8
0
 10
-34.4358
 20
21.2642
 11
-34.85
 21
21.582
  0
LINE
  8
0
 10
-34.85
 20
21.582
 11
-35.3324
 21
21.7818
  0
LINE
  8
0
 10
-35.3324
 20
21.7818
 11
-35.85
 21
21.85
  0
LINE
  8
0
 10
-35.85
 20
21.85
 11
-36.3676
 21
21.7818
  0
LINE
  8
0
 10
-36.3676
 20
21.7818
 11
-36.85
 21
21.582
  0
LINE
  8
0
 10
-36.85
 20
21.582
 11
-37.2642
 21
21.2642
  0
LINE
  8
0
 10
-37.2642
 20
21.2642
 11
-38.65
 21
19.8784
  0
LINE
  8
0
 10
-38.65
 20
19.8784
 11
-38.65
 21
25
  0
LINE
  8
0
 10
-38.65
 20
25
 11
-48.4
 21
25
  0
LINE
  8
0
 10
-48.4
 20
25
 11
-48.4
 21
35
  0
LINE
  8
0
 10
-48.4
 20
35
 11
-38.65
 21
35
  0
LINE
  8
0
 10
-38.65
 20
35
 11
-38.65
 21
40.1216
  0
LINE
  8
0
 10
-38.65
 20
40.1216
 11
-37.2642
 21
38.7358
  0
LINE
  8
0
 10
-37.2642
 20
38.7358
 11
-36.85
 21
38.418
  0
LINE
  8
0
 10
-36.85
 20
38.418
 11
-36.3676
 21
38.2182
  0
LINE
  8
0
 10
-36.3676
 20
38.2182
 11
-35.85
 21
38.15
  0
LINE
  8
0
 10
-35.85
 20
38.15
 11
-35.3324
 21
38.2182
  0
LINE
  8
0
 10
-35.3324
 20
38.2182
 11
-34.85
 21
38.418
  0
LINE
  8
0
 10
-34.85
 20
38.418
 11
-34.4358
 21
38.7358
  0
LINE
  8
0
 10
-34.4358
 20
38.7358
 11
-34.118
 21
39.15
  0
LINE
  8
0
 10
-34.118
 20
39.15
 11
-33.9182
 21
39.6324
  0
LINE
  8
0
 10
-33.9182
 20
39.6324
 11
-33.85
 21
40.15
  0
LINE
  8
0
 10
-33.85
 20
40.15
 11
-33.9182
 21
40.6676
  0
LINE
  8
0
 10
-33.9182
 20
40.6676
 11
-34.118
 21
41.15
  0
LINE
  8
0
 10
-34.118
 20
41.15
 11
-34.4358
 21
41.5642
  0
LINE
  8
0
 10
-34.4358
 20
41.5642
 11
-35.8216
 21
42.95
  0
LINE
  8
0
 10
-35.8216
 20
42.95
 11
-15.5784
 21
42.95
  0
LINE
  8
0
 10
-15.5784
 20
42.95
 11
-16.9642
 21
41.5642
  0
LINE
  8
0
 10
-16.9642
 20
41.5642
 11
-17.282
 21
41.15
  0
LINE
  8
0
 10
-17.282
 20
41.15
 11
-17.4818
 21
40.6676
  0
LINE
  8
0
 10
-17.4818
 20
40.6676
 11
-17.55
 21
40.15
  0
LINE
  8
0
 10
-17.55
 20
40.15
 11
-17.4818
 21
39.6324
  0
LINE
  8
0
 10
-17.4818
 20
39.6324
 11
-17.282
 21
39.15
  0
LINE
  8
0
 10
-17.282
 20
39.15
 11
-16.9642
 21
38.7358
  0
LINE
  8
0
 10
-16.9642
 20
38.7358
 11
-16.55
 21
38.418
  0
LINE
  8
0
 10
-16.55
 20
38.418
 11
-16.0676
 21
38.2182
  0
LINE
  8
0
 10
-16.0676
 20
38.2182
 11
-15.55
 21
38.15
  0
LINE
  8
0
 10
-15.55
 20
38.15
 11
-15.0324
 21
38.2182
  0
LINE
  8
0
 10
-15.0324
 20
38.2182
 11
-14.55
 21
38.418
  0
LINE
  8
0
 10
-14.55
 20
38.418
 11
-14.1358
 21
38.7358
  0
LINE
  8
0
 10
-14.1358
 20
38.7358
 11
-12.75
 21
40.1216
  0
LINE
  8
0
 10
-12.75
 20
40.1216
 11
-12.75
 21
35
  0
LINE
  8
0
 10
-12.75
 20
35
 11
-3
 21
35
  0
LINE
  8
0
 10
-3
 20
35
 11
-3
 21
25
  0
LINE
  8
0
 10
-3
 20
25
 11
-12.75
 21
25
  0
LINE
  8
0
 10
-12.75
 20
25
 11
-12.75
 21
19.8784
  0
LINE
  8
0
 10
-12.75
 20
19.8784
 11
-14.1358
 21
21.2642
  0
LINE
  8
0
 10
-14.1358
 20
21.2642
 11
-14.55
 21
21.582
  0
LINE
  8
0
 10
-14.55
 20
21.582
 11
-15.0324
 21
21.7818
  0
LINE
  8
0
 10
-15.0324
 20
21.7818
 11
-15.55
 21
21.85
  0
LINE
  8
0
 10
-15.55
 20
21.85
 11
-16.0676
 21
21.7818
  0
LINE
  8
0
 10
-16.0676
 20
21.7818
 11
-16.55
 21
21.582
  0
LINE
  8
0
 10
-16.55
 20
21.582
 11
-16.9642
 21
21.2642
  0
LINE
  8
0
 10
-16.9642
 20
21.2642
 11
-17.282
 21
20.85
  0
LINE
  8
0
 10
-17.282
 20
20.85
 11
-17.4818
 21
20.3676
  0
LINE
  8
0
 10
-17.4818
 20
20.3676
 11
-17.55
 21
19.85
  0
LINE
  8
0
 10
-17.55
 20
19.85
 11
-17.4818
 21
19.3324
  0
LINE
  8
0
 10
-17.4818
 20
19.3324
 11
-17.282
 21
18.85
  0
LINE
  8
0
 10
-17.282
 20
18.85
 11
-16.9642
 21
18.4358
  0
LINE
  8
0
 10
-16.9642
 20
18.4358
 11
-15.5784
 21
17.05
  0
LINE
  8
0
 10
-15.5784
 20
17.05
 11
-35.8215
 21
17.05
  0
LINE
  8
0
 10
15.3061
 20
38.924
 11
15.0716
 21
38.9951
  0
LINE
  8
0
 10
15.0716
 20
38.9951
 11
14.8555
 21
39.1107
  0
LINE
  8
0
 10
14.8555
 20
39.1107
 11
14.6661
 21
39.2661
  0
LINE
  8
0
 10
14.6661
 20
39.2661
 11
14.5107
 21
39.4555
  0
LINE
  8
0
 10
14.5107
 20
39.4555
 11
14.3951
 21
39.6716
  0
LINE
  8
0
 10
14.3951
 20
39.6716
 11
14.324
 21
39.9061
  0
LINE
  8
0
 10
14.324
 20
39.9061
 11
14.3
 21
40.15
  0
LINE
  8
0
 10
14.3
 20
40.15
 11
14.324
 21
40.3939
  0
LINE
  8
0
 10
14.324
 20
40.3939
 11
14.3951
 21
40.6283
  0
LINE
  8
0
 10
14.3951
 20
40.6283
 11
14.5107
 21
40.8445
  0
LINE
  8
0
 10
14.5107
 20
40.8445
 11
14.6661
 21
41.0339
  0
LINE
  8
0
 10
14.6661
 20
41.0339
 11
14.8555
 21
41.1893
  0
LINE
  8
0
 10
14.8555
 20
41.1893
 11
15.0716
 21
41.3048
  0
LINE
  8
0
 10
15.0716
 20
41.3048
 11
15.3061
 21
41.376
  0
LINE
  8
0
 10
15.3061
 20
41.376
 11
15.55
 21
41.4
  0
LINE
  8
0
 10
15.55
 20
41.4
 11
15.7939
 21
41.376
  0
LINE
  8
0
 10
15.7939
 20
41.376
 11
16.0284
 21
41.3048
  0
LINE
  8
0
 10
16.0284
 20
41.3048
 11
16.2445
 21
41.1893
  0
LINE
  8
0
 10
16.2445
 20
41.1893
 11
16.4339
 21
41.0339
  0
LINE
  8
0
 10
16.4339
 20
41.0339
 11
16.5893
 21
40.8445
  0
LINE
  8
0
 10
16.5893
 20
40.8445
 11
16.7048
 21
40.6283
  0
LINE
  8
0
 10
16.7048
 20
40.6283
 11
16.776
 21
40.3939
  0
LINE
  8
0
 10
16.776
 20
40.3939
 11
16.8
 21
40.15
  0
LINE
  8
0
 10
16.8
 20
40.15
 11
16.776
 21
39.9061
  0
LINE
  8
0
 10
16.776
 20
39.9061
 11
16.7048
 21
39.6716
  0
LINE
  8
0
 10
16.7048
 20
39.6716
 11
16.5893
 21
39.4555
  0
LINE
  8
0
 10
16.5893
 20
39.4555
 11
16.4339
 21
39.2661
  0
LINE
  8
0
 10
16.4339
 20
39.2661
 11
16.2445
 21
39.1107
  0
LINE
  8
0
 10
16.2445
 20
39.1107
 11
16.0284
 21
38.9951
  0
LINE
  8
0
 10
16.0284
 20
38.9951
 11
15.7939
 21
38.924
  0
LINE
  8
0
 10
15.7939
 20
38.924
 11
15.55
 21
38.9
  0
LINE
  8
0
 10
15.55
 20
38.9
 11
15.3061
 21
38.924
  0
LINE
  8
0
 10
-15.7939
 20
38.924
 11
-16.0284
 21
38.9951
  0
LINE
  8
0
 10
-16.0284
 20
38.9951
 11
-16.2445
 21
39.1107
  0
LINE
  8
0
 10
-16.2445
 20
39.1107
 11
-16.4339
 21
39.2661
  0
LINE
  8
0
 10
-16.4339
 20
39.2661
 11
-16.5893
 21
39.4555
  0
LINE
  8
0
 10
-16.5893
 20
39.4555
 11
-16.7048
 21
39.6716
  0
LINE
  8
0
 10
-16.7048
 20
39.6716
 11
-16.776
 21
39.9061
  0
LINE
  8
0
 10
-16.776
 20
39.9061
 11
-16.8
 21
40.15
  0
LINE
  8
0
 10
-16.8
 20
40.15
 11
-16.776
 21
40.3939
  0
LINE
  8
0
 10
-16.776
 20
40.3939
 11
-16.7048
 21
40.6283
  0
LINE
  8
0
 10
-16.7048
 20
40.6283
 11
-16.5893
 21
40.8445
  0
LINE
  8
0
 10
-16.5893
 20
40.8445
 11
-16.4339
 21
41.0339
  0
LINE
  8
0
 10
-16.4339
 20
41.0339
 11
-16.2445
 21
41.1893
  0
LINE
  8
0
 10
-16.2445
 20
41.1893
 11
-16.0284
 21
41.3048
  0
LINE
  8
0
 10
-16.0284
 20
41.3048
 11
-15.7939
 21
41.376
  0
LINE
  8
0
 10
-15.7939
 20
41.376
 11
-15.55
 21
41.4
  0
LINE
  8
0
 10
-15.55
 20
41.4
 11
-15.3061
 21
41.376
  0
LINE
  8
0
 10
-15.3061
 20
41.376
 11
-15.0716
 21
41.3048
  0
LINE
  8
0
 10
-15.0716
 20
41.3048
 11
-14.8555
 21
41.1893
  0
LINE
  8
0
 10
-14.8555
 20
41.1893
 11
-14.6661
 21
41.0339
  0
LINE
  8
0
 10
-14.6661
 20
41.0339
 11
-14.5107
 21
40.8445
  0
LINE
  8
0
 10
-14.5107
 20
40.8445
 11
-14.3951
 21
40.6283
  0
LINE
  8
0
 10
-14.3951
 20
40.6283
 11
-14.324
 21
40.3939
  0
LINE
  8
0
 10
-14.324
 20
40.3939
 11
-14.3
 21
40.15
  0
LINE
  8
0
 10
-14.3
 20
40.15
 11
-14.324
 21
39.9061
  0
LINE
  8
0
 10
-14.324
 20
39.9061
 11
-14.3951
 21
39.6716
  0
LINE
  8
0
 10
-14.3951
 20
39.6716
 11
-14.5107
 21
39.4555
  0
LINE
  8
0
 10
-14.5107
 20
39.4555
 11
-14.6661
 21
39.2661
  0
LINE
  8
0
 10
-14.6661
 20
39.2661
 11
-14.8555
 21
39.1107
  0
LINE
  8
0
 10
-14.8555
 20
39.1107
 11
-15.0716
 21
38.9951
  0
LINE
  8
0
 10
-15.0716
 20
38.9951
 11
-15.3061
 21
38.924
  0
LINE
  8
0
 10
-15.3061
 20
38.924
 11
-15.55
 21
38.9
  0
LINE
  8
0
 10
-15.55
 20
38.9
 11
-15.7939
 21
38.924
  0
LINE
  8
0
 10
-36.0939
 20
38.924
 11
-36.3284
 21
38.9951
  0
LINE
  8
0
 10
-36.3284
 20
38.9951
 11
-36.5444
 21
39.1107
  0
LINE
  8
0
 10
-36.5444
 20
39.1107
 11
-36.7339
 21
39.2661
  0
LINE
  8
0
 10
-36.7339
 20
39.2661
 11
-36.8893
 21
39.4555
  0
LINE
  8
0
 10
-36.8893
 20
39.4555
 11
-37.0048
 21
39.6716
  0
LINE
  8
0
 10
-37.0048
 20
39.6716
 11
-37.076
 21
39.9061
  0
LINE
  8
0
 10
-37.076
 20
39.9061
 11
-37.1
 21
40.15
  0
LINE
  8
0
 10
-37.1
 20
40.15
 11
-37.076
 21
40.3939
  0
LINE
  8
0
 10
-37.076
 20
40.3939
 11
-37.0048
 21
40.6283
  0
LINE
  8
0
 10
-37.0048
 20
40.6283
 11
-36.8893
 21
40.8445
  0
LINE
  8
0
 10
-36.8893
 20
40.8445
 11
-36.7339
 21
41.0339
  0
LINE
  8
0
 10
-36.7339
 20
41.0339
 11
-36.5444
 21
41.1893
  0
LINE
  8
0
 10
-36.5444
 20
41.1893
 11
-36.3284
 21
41.3048
  0
LINE
  8
0
 10
-36.3284
 20
41.3048
 11
-36.0939
 21
41.376
  0
LINE
  8
0
 10
-36.0939
 20
41.376
 11
-35.85
 21
41.4
  0
LINE
  8
0
 10
-35.85
 20
41.4
 11
-35.6061
 21
41.376
  0
LINE
  8
0
 10
-35.6061
 20
41.376
 11
-35.3716
 21
41.3048
  0
LINE
  8
0
 10
-35.3716
 20
41.3048
 11
-35.1555
 21
41.1893
  0
LINE
  8
0
 10
-35.1555
 20
41.1893
 11
-34.9661
 21
41.0339
  0
LINE
  8
0
 10
-34.9661
 20
41.0339
 11
-34.8107
 21
40.8445
  0
LINE
  8
0
 10
-34.8107
 20
40.8445
 11
-34.6951
 21
40.6283
  0
LINE
  8
0
 10
-34.6951
 20
40.6283
 11
-34.624
 21
40.3939
  0
LINE
  8
0
 10
-34.624
 20
40.3939
 11
-34.6
 21
40.15
  0
LINE
  8
0
 10
-34.6
 20
40.15
 11
-34.624
 21
39.9061
  0
LINE
  8
0
 10
-34.624
 20
39.9061
 11
-34.6951
 21
39.6716
  0
LINE
  8
0
 10
-34.6951
 20
39.6716
 11
-34.8107
 21
39.4555
  0
LINE
  8
0
 10
-34.8107
 20
39.4555
 11
-34.9661
 21
39.2661
  0
LINE
  8
0
 10
-34.9661
 20
39.2661
 11
-35.1555
 21
39.1107
  0
LINE
  8
0
 10
-35.1555
 20
39.1107
 11
-35.3716
 21
38.9951
  0
LINE
  8
0
 10
-35.3716
 20
38.9951
 11
-35.6061
 21
38.924
  0
LINE
  8
0
 10
-35.6061
 20
38.924
 11
-35.85
 21
38.9
  0
LINE
  8
0
 10
-35.85
 20
38.9
 11
-36.0939
 21
38.924
  0
LINE
  8
0
 10
35.6061
 20
38.924
 11
35.3716
 21
38.9951
  0
LINE
  8
0
 10
35.3716
 20
38.9951
 11
35.1555
 21
39.1107
  0
LINE
  8
0
 10
35.1555
 20
39.1107
 11
34.9661
 21
39.2661
  0
LINE
  8
0
 10
34.9661
 20
39.2661
 11
34.8107
 21
39.4555
  0
LINE
  8
0
 10
34.8107
 20
39.4555
 11
34.6951
 21
39.6716
  0
LINE
  8
0
 10
34.6951
 20
39.6716
 11
34.624
 21
39.9061
  0
LINE
  8
0
 10
34.624
 20
39.9061
 11
34.6
 21
40.15
  0
LINE
  8
0
 10
34.6
 20
40.15
 11
34.624
 21
40.3939
  0
LINE
  8
0
 10
34.624
 20
40.3939
 11
34.6951
 21
40.6283
  0
LINE
  8
0
 10
34.6951
 20
40.6283
 11
34.8107
 21
40.8445
  0
LINE
  8
0
 10
34.8107
 20
40.8445
 11
34.9661
 21
41.0339
  0
LINE
  8
0
 10
34.9661
 20
41.0339
 11
35.1555
 21
41.1893
  0
LINE
  8
0
 10
35.1555
 20
41.1893
 11
35.3716
 21
41.3048
  0
LINE
  8
0
 10
35.3716
 20
41.3048
 11
35.6061
 21
41.376
  0
LINE
  8
0
 10
35.6061
 20
41.376
 11
35.85
 21
41.4
  0
LINE
  8
0
 10
35.85
 20
41.4
 11
36.0939
 21
41.376
  0
LINE
  8
0
 10
36.0939
 20
41.376
 11
36.3284
 21
41.3048
  0
LINE
  8
0
 10
36.3284
 20
41.3048
 11
36.5444
 21
41.1893
  0
LINE
  8
0
 10
36.5444
 20
41.1893
 11
36.7339
 21
41.0339
  0
LINE
  8
0
 10
36.7339
 20
41.0339
 11
36.8893
 21
40.8445
  0
LINE
  8
0
 10
36.8893
 20
40.8445
 11
37.0048
 21
40.6283
  0
LINE
  8
0
 10
37.0048
 20
40.6283
 11
37.076
 21
40.3939
  0
LINE
  8
0
 10
37.076
 20
40.3939
 11
37.1
 21
40.15
  0
LINE
  8
0
 10
37.1
 20
40.15
 11
37.076
 21
39.9061
  0
LINE
  8
0
 10
37.076
 20
39.9061
 11
37.0048
 21
39.6716
  0
LINE
  8
0
 10
37.0048
 20
39.6716
 11
36.8893
 21
39.4555
  0
LINE
  8
0
 10
36.8893
 20
39.4555
 11
36.7339
 21
39.2661
  0
LINE
  8
0
 10
36.7339
 20
39.2661
 11
36.5444
 21
39.1107
  0
LINE
  8
0
 10
36.5444
 20
39.1107
 11
36.3284
 21
38.9951
  0
LINE
  8
0
 10
36.3284
 20
38.9951
 11
36.0939
 21
38.924
  0
LINE
  8
0
 10
36.0939
 20
38.924
 11
35.85
 21
38.9
  0
LINE
  8
0
 10
35.85
 20
38.9
 11
35.6061
 21
38.924
  0
LINE
  8
0
 10
15.3061
 20
18.624
 11
15.0716
 21
18.6951
  0
LINE
  8
0
 10
15.0716
 20
18.6951
 11
14.8555
 21
18.8107
  0
LINE
  8
0
 10
14.8555
 20
18.8107
 11
14.6661
 21
18.9661
  0
LINE
  8
0
 10
14.6661
 20
18.9661
 11
14.5107
 21
19.1555
  0
LINE
  8
0
 10
14.5107
 20
19.1555
 11
14.3951
 21
19.3716
  0
LINE
  8
0
 10
14.3951
 20
19.3716
 11
14.324
 21
19.6061
  0
LINE
  8
0
 10
14.324
 20
19.6061
 11
14.3
 21
19.85
  0
LINE
  8
0
 10
14.3
 20
19.85
 11
14.324
 21
20.0939
  0
LINE
  8
0
 10
14.324
 20
20.0939
 11
14.3951
 21
20.3284
  0
LINE
  8
0
 10
14.3951
 20
20.3284
 11
14.5107
 21
20.5444
  0
LINE
  8
0
 10
14.5107
 20
20.5444
 11
14.6661
 21
20.7339
  0
LINE
  8
0
 10
14.6661
 20
20.7339
 11
14.8555
 21
20.8893
  0
LINE
  8
0
 10
14.8555
 20
20.8893
 11
15.0716
 21
21.0048
  0
LINE
  8
0
 10
15.0716
 20
21.0048
 11
15.3061
 21
21.076
  0
LINE
  8
0
 10
15.3061
 20
21.076
 11
15.55
 21
21.1
  0
LINE
  8
0
 10
15.55
 20
21.1
 11
15.7939
 21
21.076
  0
LINE
  8
0
 10
15.7939
 20
21.076
 11
16.0284
 21
21.0048
  0
LINE
  8
0
 10
16.0284
 20
21.0048
 11
16.2445
 21
20.8893
  0
LINE
  8
0
 10
16.2445
 20
20.8893
 11
16.4339
 21
20.7339
  0
LINE
  8
0
 10
16.4339
 20
20.7339
 11
16.5893
 21
20.5444
  0
LINE
  8
0
 10
16.5893
 20
20.5444
 11
16.7048
 21
20.3284
  0
LINE
  8
0
 10
16.7048
 20
20.3284
 11
16.776
 21
20.0939
  0
LINE
  8
0
 10
16.776
 20
20.0939
 11
16.8
 21
19.85
  0
LINE
  8
0
 10
16.8
 20
19.85
 11
16.776
 21
19.6061
  0
LINE
  8
0
 10
16.776
 20
19.6061
 11
16.7048
 21
19.3716
  0
LINE
  8
0
 10
16.7048
 20
19.3716
 11
16.5893
 21
19.1555
  0
LINE
  8
0
 10
16.5893
 20
19.1555
 11
16.4339
 21
18.9661
  0
LINE
  8
0
 10
16.4339
 20
18.9661
 11
16.2445
 21
18.8107
  0
LINE
  8
0
 10
16.2445
 20
18.8107
 11
16.0284
 21
18.6951
  0
LINE
  8
0
 10
16.0284
 20
18.6951
 11
15.7939
 21
18.624
  0
LINE
  8
0
 10
15.7939
 20
18.624
 11
15.55
 21
18.6
  0
LINE
  8
0
 10
15.55
 20
18.6
 11
15.3061
 21
18.624
  0
LINE
  8
0
 10
35.6061
 20
18.624
 11
35.3716
 21
18.6951
  0
LINE
  8
0
 10
35.3716
 20
18.6951
 11
35.1555
 21
18.8107
  0
LINE
  8
0
 10
35.1555
 20
18.8107
 11
34.9661
 21
18.9661
  0
LINE
  8
0
 10
34.9661
 20
18.9661
 11
34.8107
 21
19.1555
  0
LINE
  8
0
 10
34.8107
 20
19.1555
 11
34.6951
 21
19.3716
  0
LINE
  8
0
 10
34.6951
 20
19.3716
 11
34.624
 21
19.6061
  0
LINE
  8
0
 10
34.624
 20
19.6061
 11
34.6
 21
19.85
  0
LINE
  8
0
 10
34.6
 20
19.85
 11
34.624
 21
20.0939
  0
LINE
  8
0
 10
34.624
 20
20.0939
 11
34.6951
 21
20.3284
  0
LINE
  8
0
 10
34.6951
 20
20.3284
 11
34.8107
 21
20.5444
  0
LINE
  8
0
 10
34.8107
 20
20.5444
 11
34.9661
 21
20.7339
  0
LINE
  8
0
 10
34.9661
 20
20.7339
 11
35.1555
 21
20.8893
  0
LINE
  8
0
 10
35.1555
 20
20.8893
 11
35.3716
 21
21.0048
  0
LINE
  8
0
 10
35.3716
 20
21.0048
 11
35.6061
 21
21.076
  0
LINE
  8
0
 10
35.6061
 20
21.076
 11
35.85
 21
21.1
  0
LINE
  8
0
 10
35.85
 20
21.1
 11
36.0939
 21
21.076
  0
LINE
  8
0
 10
36.0939
 20
21.076
 11
36.3284
 21
21.0048
  0
LINE
  8
0
 10
36.3284
 20
21.0048
 11
36.5444
 21
20.8893
  0
LINE
  8
0
 10
36.5444
 20
20.8893
 11
36.7339
 21
20.7339
  0
LINE
  8
0
 10
36.7339
 20
20.7339
 11
36.8893
 21
20.5444
  0
LINE
  8
0
 10
36.8893
 20
20.5444
 11
37.0048
 21
20.3284
  0
LINE
  8
0
 10
37.0048
 20
20.3284
 11
37.076
 21
20.0939
  0
LINE
  8
0
 10
37.076
 20
20.0939
 11
37.1
 21
19.85
  0
LINE
  8
0
 10
37.1
 20
19.85
 11
37.076
 21
19.6061
  0
LINE
  8
0
 10
37.076
 20
19.6061
 11
37.0048
 21
19.3716
  0
LINE
  8
0
 10
37.0048
 20
19.3716
 11
36.8893
 21
19.1555
  0
LINE
  8
0
 10
36.8893
 20
19.1555
 11
36.7339
 21
18.9661
  0
LINE
  8
0
 10
36.7339
 20
18.9661
 11
36.5444
 21
18.8107
  0
LINE
  8
0
 10
36.5444
 20
18.8107
 11
36.3284
 21
18.6951
  0
LINE
  8
0
 10
36.3284
 20
18.6951
 11
36.0939
 21
18.624
  0
LINE
  8
0
 10
36.0939
 20
18.624
 11
35.85
 21
18.6
  0
LINE
  8
0
 10
35.85
 20
18.6
 11
35.6061
 21
18.624
  0
LINE
  8
0
 10
-36.0939
 20
18.624
 11
-36.3284
 21
18.6951
  0
LINE
  8
0
 10
-36.3284
 20
18.6951
 11
-36.5444
 21
18.8107
  0
LINE
  8
0
 10
-36.5444
 20
18.8107
 11
-36.7339
 21
18.9661
  0
LINE
  8
0
 10
-36.7339
 20
18.9661
 11
-36.8893
 21
19.1555
  0
LINE
  8
0
 10
-36.8893
 20
19.1555
 11
-37.0048
 21
19.3716
  0
LINE
  8
0
 10
-37.0048
 20
19.3716
 11
-37.076
 21
19.6061
  0
LINE
  8
0
 10
-37.076
 20
19.6061
 11
-37.1
 21
19.85
  0
LINE
  8
0
 10
-37.1
 20
19.85
 11
-37.076
 21
20.0939
  0
LINE
  8
0
 10
-37.076
 20
20.0939
 11
-37.0048
 21
20.3284
  0
LINE
  8
0
 10
-37.0048
 20
20.3284
 11
-36.8893
 21
20.5444
  0
LINE
  8
0
 10
-36.8893
 20
20.5444
 11
-36.7339
 21
20.7339
  0
LINE
  8
0
 10
-36.7339
 20
20.7339
 11
-36.5444
 21
20.8893
  0
LINE
  8
0
 10
-36.5444
 20
20.8893
 11
-36.3284
 21
21.0048
  0
LINE
  8
0
 10
-36.3284
 20
21.0048
 11
-36.0939
 21
21.076
  0
LINE
  8
0
 10
-36.0939
 20
21.076
 11
-35.85
 21
21.1
  0
LINE
  8
0
 10
-35.85
 20
21.1
 11
-35.6061
 21
21.076
  0
LINE
  8
0
 10
-35.6061
 20
21.076
 11
-35.3716
 21
21.0048
  0
LINE
  8
0
 10
-35.3716
 20
21.0048
 11
-35.1555
 21
20.8893
  0
LINE
  8
0
 10
-35.1555
 20
20.8893
 11
-34.9661
 21
20.7339
  0
LINE
  8
0
 10
-34.9661
 20
20.7339
 11
-34.8107
 21
20.5444
  0
LINE
  8
0
 10
-34.8107
 20
20.5444
 11
-34.6951
 21
20.3284
  0
LINE
  8
0
 10
-34.6951
 20
20.3284
 11
-34.624
 21
20.0939
  0
LINE
  8
0
 10
-34.624
 20
20.0939
 11
-34.6
 21
19.85
  0
LINE
  8
0
 10
-34.6
 20
19.85
 11
-34.624
 21
19.6061
  0
LINE
  8
0
 10
-34.624
 20
19.6061
 11
-34.6951
 21
19.3716
  0
LINE
  8
0
 10
-34.6951
 20
19.3716
 11
-34.8107
 21
19.1555
  0
LINE
  8
0
 10
-34.8107
 20
19.1555
 11
-34.9661
 21
18.9661
  0
LINE
  8
0
 10
-34.9661
 20
18.9661
 11
-35.1555
 21
18.8107
  0
LINE
  8
0
 10
-35.1555
 20
18.8107
 11
-35.3716
 21
18.6951
  0
LINE
  8
0
 10
-35.3716
 20
18.6951
 11
-35.6061
 21
18.624
  0
LINE
  8
0
 10
-35.6061
 20
18.624
 11
-35.85
 21
18.6
  0
LINE
  8
0
 10
-35.85
 20
18.6
 11
-36.0939
 21
18.624
  0
LINE
  8
0
 10
-15.7939
 20
18.624
 11
-16.0284
 21
18.6951
  0
LINE
  8
0
 10
-16.0284
 20
18.6951
 11
-16.2445
 21
18.8107
  0
LINE
  8
0
 10
-16.2445
 20
18.8107
 11
-16.4339
 21
18.9661
  0
LINE
  8
0
 10
-16.4339
 20
18.9661
 11
-16.5893
 21
19.1555
  0
LINE
  8
0
 10
-16.5893
 20
19.1555
 11
-16.7048
 21
19.3716
  0
LINE
  8
0
 10
-16.7048
 20
19.3716
 11
-16.776
 21
19.6061
  0
LINE
  8
0
 10
-16.776
 20
19.6061
 11
-16.8
 21
19.85
  0
LINE
  8
0
 10
-16.8
 20
19.85
 11
-16.776
 21
20.0939
  0
LINE
  8
0
 10
-16.776
 20
20.0939
 11
-16.7048
 21
20.3284
  0
LINE
  8
0
 10
-16.7048
 20
20.3284
 11
-16.5893
 21
20.5444
  0
LINE
  8
0
 10
-16.5893
 20
20.5444
 11
-16.4339
 21
20.7339
  0
LINE
  8
0
 10
-16.4339
 20
20.7339
 11
-16.2445
 21
20.8893
  0
LINE
  8
0
 10
-16.2445
 20
20.8893
 11
-16.0284
 21
21.0048
  0
LINE
  8
0
 10
-16.0284
 20
21.0048
 11
-15.7939
 21
21.076
  0
LINE
  8
0
 10
-15.7939
 20
21.076
 11
-15.55
 21
21.1
  0
LINE
  8
0
 10
-15.55
 20
21.1
 11
-15.3061
 21
21.076
  0
LINE
  8
0
 10
-15.3061
 20
21.076
 11
-15.0716
 21
21.0048
  0
LINE
  8
0
 10
-15.0716
 20
21.0048
 11
-14.8555
 21
20.8893
  0
LINE
  8
0
 10
-14.8555
 20
20.8893
 11
-14.6661
 21
20.7339
  0
LINE
  8
0
 10
-14.6661
 20
20.7339
 11
-14.5107
 21
20.5444
  0
LINE
  8
0
 10
-14.5107
 20
20.5444
 11
-14.3951
 21
20.3284
  0
LINE
  8
0
 10
-14.3951
 20
20.3284
 11
-14.324
 21
20.0939
  0
LINE
  8
0
 10
-14.324
 20
20.0939
 11
-14.3
 21
19.85
  0
LINE
  8
0
 10
-14.3
 20
19.85
 11
-14.324
 21
19.6061
  0
LINE
  8
0
 10
-14.324
 20
19.6061
 11
-14.3951
 21
19.3716
  0
LINE
  8
0
 10
-14.3951
 20
19.3716
 11
-14.5107
 21
19.1555
  0
LINE
  8
0
 10
-14.5107
 20
19.1555
 11
-14.6661
 21
18.9661
  0
LINE
  8
0
 10
-14.6661
 20
18.9661
 11
-14.8555
 21
18.8107
  0
LINE
  8
0
 10
-14.8555
 20
18.8107
 11
-15.0716
 21
18.6951
  0
LINE
  8
0
 10
-15.0716
 20
18.6951
 11
-15.3061
 21
18.624
  0
LINE
  8
0
 10
-15.3061
 20
18.624
 11
-15.55
 21
18.6
  0
LINE
  8
0
 10
-15.55
 20
18.6
 11
-15.7939
 21
18.624
  0
LINE
  8
0
 10
-0.3414
 20
16.2836
 11
-0.669693
 21
16.3832
  0
LINE
  8
0
 10
-0.669693
 20
16.3832
 11
-0.972244
 21
16.5449
  0
LINE
  8
0
 10
-0.972244
 20
16.5449
 11
-1.23743
 21
16.7626
  0
LINE
  8
0
 10
-1.23743
 20
16.7626
 11
-1.45506
 21
17.0277
  0
LINE
  8
0
 10
-1.45506
 20
17.0277
 11
-1.61678
 21
17.3303
  0
LINE
  8
0
 10
-1.61678
 20
17.3303
 11
-1.71637
 21
17.6586
  0
LINE
  8
0
 10
-1.71637
 20
17.6586
 11
-1.75
 21
18
  0
LINE
  8
0
 10
-1.75
 20
18
 11
-1.71637
 21
18.3414
  0
LINE
  8
0
 10
-1.71637
 20
18.3414
 11
-1.61678
 21
18.6697
  0
LINE
  8
0
 10
-1.61678
 20
18.6697
 11
-1.45506
 21
18.9722
  0
LINE
  8
0
 10
-1.45506
 20
18.9722
 11
-1.23743
 21
19.2374
  0
LINE
  8
0
 10
-1.23743
 20
19.2374
 11
-0.972244
 21
19.4551
  0
LINE
  8
0
 10
-0.972244
 20
19.4551
 11
-0.669693
 21
19.6168
  0
LINE
  8
0
 10
-0.669693
 20
19.6168
 11
-0.3414
 21
19.7164
  0
LINE
  8
0
 10
-0.3414
 20
19.7164
 11
0
 21
19.75
  0
LINE
  8
0
 10
0
 20
19.75
 11
0.3414
 21
19.7164
  0
LINE
  8
0
 10
0.3414
 20
19.7164
 11
0.669693
 21
19.6168
  0
LINE
  8
0
 10
0.669693
 20
19.6168
 11
0.972244
 21
19.4551
  0
LINE
  8
0
 10
0.972244
 20
19.4551
 11
1.23743
 21
19.2374
  0
LINE
  8
0
 10
1.23743
 20
19.2374
 11
1.45506
 21
18.9722
  0
LINE
  8
0
 10
1.45506
 20
18.9722
 11
1.61678
 21
18.6697
  0
LINE
  8
0
 10
1.61678
 20
18.6697
 11
1.71637
 21
18.3414
  0
LINE
  8
0
 10
1.71637
 20
18.3414
 11
1.75
 21
18
  0
LINE
  8
0
 10
1.75
 20
18
 11
1.71637
 21
17.6586
  0
LINE
  8
0
 10
1.71637
 20
17.6586
 11
1.61678
 21
17.3303
  0
LINE
  8
0
 10
1.61678
 20
17.3303
 11
1.45506
 21
17.0277
  0
LINE
  8
0
 10
1.45506
 20
17.0277
 11
1.23743
 21
16.7626
  0
LINE
  8
0
 10
1.23743
 20
16.7626
 11
0.972244
 21
16.5449
  0
LINE
  8
0
 10
0.972244
 20
16.5449
 11
0.669693
 21
16.3832
  0
LINE
  8
0
 10
0.669693
 20
16.3832
 11
0.3414
 21
16.2836
  0
LINE
  8
0
 10
0.3414
 20
16.2836
 11
0
 21
16.25
  0
LINE
  8
0
 10
0
 20
16.25
 11
-0.3414
 21
16.2836
  0
LINE
  8
0
 10
-35.85
 20
-11.045
 11
-36.3377
 21
-10.9969
  0
LINE
  8
0
 10
-36.3377
 20
-10.9969
 11
-36.8067
 21
-10.8547
  0
LINE
  8
0
 10
-36.8067
 20
-10.8547
 11
-37.2389
 21
-10.6237
  0
LINE
  8
0
 10
-37.2389
 20
-10.6237
 11
-37.6178
 21
-10.3128
  0
LINE
  8
0
 10
-37.6178
 20
-10.3128
 11
-37.9286
 21
-9.93391
  0
LINE
  8
0
 10
-37.9286
 20
-9.93391
 11
-38.1597
 21
-9.50169
  0
LINE
  8
0
 10
-38.1597
 20
-9.50169
 11
-38.3019
 21
-9.03271
  0
LINE
  8
0
 10
-38.3019
 20
-9.03271
 11
-38.35
 21
-8.545
  0
LINE
  8
0
 10
-38.35
 20
-8.545
 11
-38.35
 21
-8.2
  0
LINE
  8
0
 10
-38.35
 20
-8.2
 11
-48.1
 21
-8.2
  0
LINE
  8
0
 10
-48.1
 20
-8.2
 11
-48.1
 21
1.79999
  0
LINE
  8
0
 10
-48.1
 20
1.79999
 11
-38.35
 21
1.79999
  0
LINE
  8
0
 10
-38.35
 20
1.79999
 11
-38.35
 21
8.545
  0
LINE
  8
0
 10
-38.35
 20
8.545
 11
-38.3019
 21
9.03271
  0
LINE
  8
0
 10
-38.3019
 20
9.03271
 11
-38.1597
 21
9.50169
  0
LINE
  8
0
 10
-38.1597
 20
9.50169
 11
-37.9286
 21
9.93391
  0
LINE
  8
0
 10
-37.9286
 20
9.93391
 11
-37.6178
 21
10.3128
  0
LINE
  8
0
 10
-37.6178
 20
10.3128
 11
-37.2389
 21
10.6237
  0
LINE
  8
0
 10
-37.2389
 20
10.6237
 11
-36.8067
 21
10.8547
  0
LINE
  8
0
 10
-36.8067
 20
10.8547
 11
-36.3377
 21
10.9969
  0
LINE
  8
0
 10
-36.3377
 20
10.9969
 11
-35.85
 21
11.045
  0
LINE
  8
0
 10
-35.85
 20
11.045
 11
-21.05
 21
11.045
  0
LINE
  8
0
 10
-21.05
 20
11.045
 11
-21.05
 21
8.25
  0
LINE
  8
0
 10
-21.05
 20
8.25
 11
-20.9818
 21
7.73238
  0
LINE
  8
0
 10
-20.9818
 20
7.73238
 11
-20.782
 21
7.25
  0
LINE
  8
0
 10
-20.782
 20
7.25
 11
-20.4642
 21
6.8358
  0
LINE
  8
0
 10
-20.4642
 20
6.8358
 11
-20.05
 21
6.51796
  0
LINE
  8
0
 10
-20.05
 20
6.51796
 11
-19.5676
 21
6.31816
  0
LINE
  8
0
 10
-19.5676
 20
6.31816
 11
-19.05
 21
6.25
  0
LINE
  8
0
 10
-19.05
 20
6.25
 11
-18.5324
 21
6.31816
  0
LINE
  8
0
 10
-18.5324
 20
6.31816
 11
-18.05
 21
6.51796
  0
LINE
  8
0
 10
-18.05
 20
6.51796
 11
-17.6358
 21
6.8358
  0
LINE
  8
0
 10
-17.6358
 20
6.8358
 11
-17.3179
 21
7.25
  0
LINE
  8
0
 10
-17.3179
 20
7.25
 11
-17.1181
 21
7.73238
  0
LINE
  8
0
 10
-17.1181
 20
7.73238
 11
-17.05
 21
8.25
  0
LINE
  8
0
 10
-17.05
 20
8.25
 11
-17.05
 21
11.045
  0
LINE
  8
0
 10
-17.05
 20
11.045
 11
17.05
 21
11.045
  0
LINE
  8
0
 10
17.05
 20
11.045
 11
17.05
 21
8.25
  0
LINE
  8
0
 10
17.05
 20
8.25
 11
17.1181
 21
7.73238
  0
LINE
  8
0
 10
17.1181
 20
7.73238
 11
17.3179
 21
7.25
  0
LINE
  8
0
 10
17.3179
 20
7.25
 11
17.6358
 21
6.8358
  0
LINE
  8
0
 10
17.6358
 20
6.8358
 11
18.05
 21
6.51796
  0
LINE
  8
0
 10
18.05
 20
6.51796
 11
18.5324
 21
6.31816
  0
LINE
  8
0
 10
18.5324
 20
6.31816
 11
19.05
 21
6.25
  0
LINE
  8
0
 10
19.05
 20
6.25
 11
19.5676
 21
6.31816
  0
LINE
  8
0
 10
19.5676
 20
6.31816
 11
20.05
 21
6.51796
  0
LINE
  8
0
 10
20.05
 20
6.51796
 11
20.4642
 21
6.8358
  0
LINE
  8
0
 10
20.4642
 20
6.8358
 11
20.782
 21
7.25
  0
LINE
  8
0
 10
20.782
 20
7.25
 11
20.9818
 21
7.73238
  0
LINE
  8
0
 10
20.9818
 20
7.73238
 11
21.05
 21
8.25
  0
LINE
  8
0
 10
21.05
 20
8.25
 11
21.05
 21
11.045
  0
LINE
  8
0
 10
21.05
 20
11.045
 11
35.85
 21
11.045
  0
LINE
  8
0
 10
35.85
 20
11.045
 11
36.3377
 21
10.9969
  0
LINE
  8
0
 10
36.3377
 20
10.9969
 11
36.8067
 21
10.8547
  0
LINE
  8
0
 10
36.8067
 20
10.8547
 11
37.2389
 21
10.6237
  0
LINE
  8
0
 10
37.2389
 20
10.6237
 11
37.6178
 21
10.3128
  0
LINE
  8
0
 10
37.6178
 20
10.3128
 11
37.9286
 21
9.93391
  0
LINE
  8
0
 10
37.9286
 20
9.93391
 11
38.1597
 21
9.50169
  0
LINE
  8
0
 10
38.1597
 20
9.50169
 11
38.3019
 21
9.03271
  0
LINE
  8
0
 10
38.3019
 20
9.03271
 11
38.35
 21
8.545
  0
LINE
  8
0
 10
38.35
 20
8.545
 11
38.35
 21
1.79999
  0
LINE
  8
0
 10
38.35
 20
1.79999
 11
48.1
 21
1.79999
  0
LINE
  8
0
 10
48.1
 20
1.79999
 11
48.1
 21
-8.2
  0
LINE
  8
0
 10
48.1
 20
-8.2
 11
38.35
 21
-8.2
  0
LINE
  8
0
 10
38.35
 20
-8.2
 11
38.35
 21
-8.545
  0
LINE
  8
0
 10
38.35
 20
-8.545
 11
38.3019
 21
-9.03271
  0
LINE
  8
0
 10
38.3019
 20
-9.03271
 11
38.1597
 21
-9.50169
  0
LINE
  8
0
 10
38.1597
 20
-9.50169
 11
37.9286
 21
-9.93391
  0
LINE
  8
0
 10
37.9286
 20
-9.93391
 11
37.6178
 21
-10.3128
  0
LINE
  8
0
 10
37.6178
 20
-10.3128
 11
37.2389
 21
-10.6237
  0
LINE
  8
0
 10
37.2389
 20
-10.6237
 11
36.8067
 21
-10.8547
  0
LINE
  8
0
 10
36.8067
 20
-10.8547
 11
36.3377
 21
-10.9969
  0
LINE
  8
0
 10
36.3377
 20
-10.9969
 11
35.85
 21
-11.045
  0
LINE
  8
0
 10
35.85
 20
-11.045
 11
21.05
 21
-11.045
  0
LINE
  8
0
 10
21.05
 20
-11.045
 11
21.05
 21
-8.25
  0
LINE
  8
0
 10
21.05
 20
-8.25
 11
20.9818
 21
-7.73238
  0
LINE
  8
0
 10
20.9818
 20
-7.73238
 11
20.782
 21
-7.25
  0
LINE
  8
0
 10
20.782
 20
-7.25
 11
20.4642
 21
-6.8358
  0
LINE
  8
0
 10
20.4642
 20
-6.8358
 11
20.05
 21
-6.51796
  0
LINE
  8
0
 10
20.05
 20
-6.51796
 11
19.5676
 21
-6.31816
  0
LINE
  8
0
 10
19.5676
 20
-6.31816
 11
19.05
 21
-6.25
  0
LINE
  8
0
 10
19.05
 20
-6.25
 11
18.5324
 21
-6.31816
  0
LINE
  8
0
 10
18.5324
 20
-6.31816
 11
18.05
 21
-6.51796
  0
LINE
  8
0
 10
18.05
 20
-6.51796
 11
17.6358
 21
-6.8358
  0
LINE
  8
0
 10
17.6358
 20
-6.8358
 11
17.3179
 21
-7.25
  0
LINE
  8
0
 10
17.3179
 20
-7.25
 11
17.1181
 21
-7.73238
  0
LINE
  8
0
 10
17.1181
 20
-7.73238
 11
17.05
 21
-8.25
  0
LINE
  8
0
 10
17.05
 20
-8.25
 11
17.05
 21
-11.045
  0
LINE
  8
0
 10
17.05
 20
-11.045
 11
-17.05
 21
-11.045
  0
LINE
  8
0
 10
-17.05
 20
-11.045
 11
-17.05
 21
-8.25
  0
LINE
  8
0
 10
-17.05
 20
-8.25
 11
-17.1181
 21
-7.73238
  0
LINE
  8
0
 10
-17.1181
 20
-7.73238
 11
-17.3179
 21
-7.25
  0
LINE
  8
0
 10
-17.3179
 20
-7.25
 11
-17.6358
 21
-6.8358
  0
LINE
  8
0
 10
-17.6358
 20
-6.8358
 11
-18.05
 21
-6.51796
  0
LINE
  8
0
 10
-18.05
 20
-6.51796
 11
-18.5324
 21
-6.31816
  0
LINE
  8
0
 10
-18.5324
 20
-6.31816
 11
-19.05
 21
-6.25
  0
LINE
  8
0
 10
-19.05
 20
-6.25
 11
-19.5676
 21
-6.31816
  0
LINE
  8
0
 10
-19.5676
 20
-6.31816
 11
-20.05
 21
-6.51796
  0
LINE
  8
0
 10
-20.05
 20
-6.51796
 11
-20.4642
 21
-6.8358
  0
LINE
  8
0
 10
-20.4642
 20
-6.8358
 11
-20.782
 21
-7.25
  0
LINE
  8
0
 10
-20.782
 20
-7.25
 11
-20.9818
 21
-7.73238
  0
LINE
  8
0
 10
-20.9818
 20
-7.73238
 11
-21.05
 21
-8.25
  0
LINE
  8
0
 10
-21.05
 20
-8.25
 11
-21.05
 21
-11.045
  0
LINE
  8
0
 10
-21.05
 20
-11.045
 11
-35.85
 21
-11.045
  0
LINE
  8
0
 10
18.8061
 20
7.02402
 11
18.5716
 21
7.09514
  0
LINE
  8
0
 10
18.5716
 20
7.09514
 11
18.3555
 21
7.21066
  0
LINE
  8
0
 10
18.3555
 20
7.21066
 11
18.1661
 21
7.3661
  0
LINE
  8
0
 10
18.1661
 20
7.3661
 11
18.0107
 21
7.55553
  0
LINE
  8
0
 10
18.0107
 20
7.55553
 11
17.8951
 21
7.77164
  0
LINE
  8
0
 10
17.8951
 20
7.77164
 11
17.824
 21
8.00613
  0
LINE
  8
0
 10
17.824
 20
8.00613
 11
17.8
 21
8.25
  0
LINE
  8
0
 10
17.8
 20
8.25
 11
17.824
 21
8.49385
  0
LINE
  8
0
 10
17.824
 20
8.49385
 11
17.8951
 21
8.72835
  0
LINE
  8
0
 10
17.8951
 20
8.72835
 11
18.0107
 21
8.94446
  0
LINE
  8
0
 10
18.0107
 20
8.94446
 11
18.1661
 21
9.13388
  0
LINE
  8
0
 10
18.1661
 20
9.13388
 11
18.3555
 21
9.28932
  0
LINE
  8
0
 10
18.3555
 20
9.28932
 11
18.5716
 21
9.40485
  0
LINE
  8
0
 10
18.5716
 20
9.40485
 11
18.8061
 21
9.47597
  0
LINE
  8
0
 10
18.8061
 20
9.47597
 11
19.05
 21
9.5
  0
LINE
  8
0
 10
19.05
 20
9.5
 11
19.2939
 21
9.47597
  0
LINE
  8
0
 10
19.2939
 20
9.47597
 11
19.5284
 21
9.40485
  0
LINE
  8
0
 10
19.5284
 20
9.40485
 11
19.7445
 21
9.28932
  0
LINE
  8
0
 10
19.7445
 20
9.28932
 11
19.9339
 21
9.13388
  0
LINE
  8
0
 10
19.9339
 20
9.13388
 11
20.0893
 21
8.94446
  0
LINE
  8
0
 10
20.0893
 20
8.94446
 11
20.2048
 21
8.72835
  0
LINE
  8
0
 10
20.2048
 20
8.72835
 11
20.276
 21
8.49385
  0
LINE
  8
0
 10
20.276
 20
8.49385
 11
20.3
 21
8.25
  0
LINE
  8
0
 10
20.3
 20
8.25
 11
20.276
 21
8.00613
  0
LINE
  8
0
 10
20.276
 20
8.00613
 11
20.2048
 21
7.77164
  0
LINE
  8
0
 10
20.2048
 20
7.77164
 11
20.0893
 21
7.55553
  0
LINE
  8
0
 10
20.0893
 20
7.55553
 11
19.9339
 21
7.3661
  0
LINE
  8
0
 10
19.9339
 20
7.3661
 11
19.7445
 21
7.21066
  0
LINE
  8
0
 10
19.7445
 20
7.21066
 11
19.5284
 21
7.09514
  0
LINE
  8
0
 10
19.5284
 20
7.09514
 11
19.2939
 21
7.02402
  0
LINE
  8
0
 10
19.2939
 20
7.02402
 11
19.05
 21
7
  0
LINE
  8
0
 10
19.05
 20
7
 11
18.8061
 21
7.02402
  0
LINE
  8
0
 10
-19.2939
 20
7.02402
 11
-19.5284
 21
7.09514
  0
LINE
  8
0
 10
-19.5284
 20
7.09514
 11
-19.7445
 21
7.21066
  0
LINE
  8
0
 10
-19.7445
 20
7.21066
 11
-19.9339
 21
7.3661
  0
LINE
  8
0
 10
-19.9339
 20
7.3661
 11
-20.0893
 21
7.55553
  0
LINE
  8
0
 10
-20.0893
 20
7.55553
 11
-20.2048
 21
7.77164
  0
LINE
  8
0
 10
-20.2048
 20
7.77164
 11
-20.276
 21
8.00613
  0
LINE
  8
0
 10
-20.276
 20
8.00613
 11
-20.3
 21
8.25
  0
LINE
  8
0
 10
-20.3
 20
8.25
 11
-20.276
 21
8.49385
  0
LINE
  8
0
 10
-20.276
 20
8.49385
 11
-20.2048
 21
8.72835
  0
LINE
  8
0
 10
-20.2048
 20
8.72835
 11
-20.0893
 21
8.94446
  0
LINE
  8
0
 10
-20.0893
 20
8.94446
 11
-19.9339
 21
9.13388
  0
LINE
  8
0
 10
-19.9339
 20
9.13388
 11
-19.7445
 21
9.28932
  0
LINE
  8
0
 10
-19.7445
 20
9.28932
 11
-19.5284
 21
9.40485
  0
LINE
  8
0
 10
-19.5284
 20
9.40485
 11
-19.2939
 21
9.47597
  0
LINE
  8
0
 10
-19.2939
 20
9.47597
 11
-19.05
 21
9.5
  0
LINE
  8
0
 10
-19.05
 20
9.5
 11
-18.8061
 21
9.47597
  0
LINE
  8
0
 10
-18.8061
 20
9.47597
 11
-18.5716
 21
9.40485
  0
LINE
  8
0
 10
-18.5716
 20
9.40485
 11
-18.3555
 21
9.28932
  0
LINE
  8
0
 10
-18.3555
 20
9.28932
 11
-18.1661
 21
9.13388
  0
LINE
  8
0
 10
-18.1661
 20
9.13388
 11
-18.0107
 21
8.94446
  0
LINE
  8
0
 10
-18.0107
 20
8.94446
 11
-17.8951
 21
8.72835
  0
LINE
  8
0
 10
-17.8951
 20
8.72835
 11
-17.824
 21
8.49385
  0
LINE
  8
0
 10
-17.824
 20
8.49385
 11
-17.8
 21
8.25
  0
LINE
  8
0
 10
-17.8
 20
8.25
 11
-17.824
 21
8.00613
  0
LINE
  8
0
 10
-17.824
 20
8.00613
 11
-17.8951
 21
7.77164
  0
LINE
  8
0
 10
-17.8951
 20
7.77164
 11
-18.0107
 21
7.55553
  0
LINE
  8
0
 10
-18.0107
 20
7.55553
 11
-18.1661
 21
7.3661
  0
LINE
  8
0
 10
-18.1661
 20
7.3661
 11
-18.3555
 21
7.21066
  0
LINE
  8
0
 10
-18.3555
 20
7.21066
 11
-18.5716
 21
7.09514
  0
LINE
  8
0
 10
-18.5716
 20
7.09514
 11
-18.8061
 21
7.02402
  0
LINE
  8
0
 10
-18.8061
 20
7.02402
 11
-19.05
 21
7
  0
LINE
  8
0
 10
-19.05
 20
7
 11
-19.2939
 21
7.02402
  0
LINE
  8
0
 10
18.8061
 20
-9.47597
 11
18.5716
 21
-9.40485
  0
LINE
  8
0
 10
18.5716
 20
-9.40485
 11
18.3555
 21
-9.28932
  0
LINE
  8
0
 10
18.3555
 20
-9.28932
 11
18.1661
 21
-9.13388
  0
LINE
  8
0
 10
18.1661
 20
-9.13388
 11
18.0107
 21
-8.94446
  0
LINE
  8
0
 10
18.0107
 20
-8.94446
 11
17.8951
 21
-8.72835
  0
LINE
  8
0
 10
17.8951
 20
-8.72835
 11
17.824
 21
-8.49385
  0
LINE
  8
0
 10
17.824
 20
-8.49385
 11
17.8
 21
-8.25
  0
LINE
  8
0
 10
17.8
 20
-8.25
 11
17.824
 21
-8.00613
  0
LINE
  8
0
 10
17.824
 20
-8.00613
 11
17.8951
 21
-7.77164
  0
LINE
  8
0
 10
17.8951
 20
-7.77164
 11
18.0107
 21
-7.55553
  0
LINE
  8
0
 10
18.0107
 20
-7.55553
 11
18.1661
 21
-7.3661
  0
LINE
  8
0
 10
18.1661
 20
-7.3661
 11
18.3555
 21
-7.21066
  0
LINE
  8
0
 10
18.3555
 20
-7.21066
 11
18.5716
 21
-7.09514
  0
LINE
  8
0
 10
18.5716
 20
-7.09514
 11
18.8061
 21
-7.02402
  0
LINE
  8
0
 10
18.8061
 20
-7.02402
 11
19.05
 21
-7
  0
LINE
  8
0
 10
19.05
 20
-7
 11
19.2939
 21
-7.02402
  0
LINE
  8
0
 10
19.2939
 20
-7.02402
 11
19.5284
 21
-7.09514
  0
LINE
  8
0
 10
19.5284
 20
-7.09514
 11
19.7445
 21
-7.21066
  0
LINE
  8
0
 10
19.7445
 20
-7.21066
 11
19.9339
 21
-7.3661
  0
LINE
  8
0
 10
19.9339
 20
-7.3661
 11
20.0893
 21
-7.55553
  0
LINE
  8
0
 10
20.0893
 20
-7.55553
 11
20.2048
 21
-7.77164
  0
LINE
  8
0
 10
20.2048
 20
-7.77164
 11
20.276
 21
-8.00613
  0
LINE
  8
0
 10
20.276
 20
-8.00613
 11
20.3
 21
-8.25
  0
LINE
  8
0
 10
20.3
 20
-8.25
 11
20.276
 21
-8.49385
  0
LINE
  8
0
 10
20.276
 20
-8.49385
 11
20.2048
 21
-8.72835
  0
LINE
  8
0
 10
20.2048
 20
-8.72835
 11
20.0893
 21
-8.94446
  0
LINE
  8
0
 10
20.0893
 20
-8.94446
 11
19.9339
 21
-9.13388
  0
LINE
  8
0
 10
19.9339
 20
-9.13388
 11
19.7445
 21
-9.28932
  0
LINE
  8
0
 10
19.7445
 20
-9.28932
 11
19.5284
 21
-9.40485
  0
LINE
  8
0
 10
19.5284
 20
-9.40485
 11
19.2939
 21
-9.47597
  0
LINE
  8
0
 10
19.2939
 20
-9.47597
 11
19.05
 21
-9.5
  0
LINE
  8
0
 10
19.05
 20
-9.5
 11
18.8061
 21
-9.47597
  0
LINE
  8
0
 10
-19.2939
 20
-9.47597
 11
-19.5284
 21
-9.40485
  0
LINE
  8
0
 10
-19.5284
 20
-9.40485
 11
-19.7445
 21
-9.28932
  0
LINE
  8
0
 10
-19.7445
 20
-9.28932
 11
-19.9339
 21
-9.13388
  0
LINE
  8
0
 10
-19.9339
 20
-9.13388
 11
-20.0893
 21
-8.94446
  0
LINE
  8
0
 10
-20.0893
 20
-8.94446
 11
-20.2048
 21
-8.72835
  0
LINE
  8
0
 10
-20.2048
 20
-8.72835
 11
-20.276
 21
-8.49385
  0
LINE
  8
0
 10
-20.276
 20
-8.49385
 11
-20.3
 21
-8.25
  0
LINE
  8
0
 10
-20.3
 20
-8.25
 11
-20.276
 21
-8.00613
  0
LINE
  8
0
 10
-20.276
 20
-8.00613
 11
-20.2048
 21
-7.77164
  0
LINE
  8
0
 10
-20.2048
 20
-7.77164
 11
-20.0893
 21
-7.55553
  0
LINE
  8
0
 10
-20.0893
 20
-7.55553
 11
-19.9339
 21
-7.3661
  0
LINE
  8
0
 10
-19.9339
 20
-7.3661
 11
-19.7445
 21
-7.21066
  0
LINE
  8
0
 10
-19.7445
 20
-7.21066
 11
-19.5284
 21
-7.09514
  0
LINE
  8
0
 10
-19.5284
 20
-7.09514
 11
-19.2939
 21
-7.02402
  0
LINE
  8
0
 10
-19.2939
 20
-7.02402
 11
-19.05
 21
-7
  0
LINE
  8
0
 10
-19.05
 20
-7
 11
-18.8061
 21
-7.02402
  0
LINE
  8
0
 10
-18.8061
 20
-7.02402
 11
-18.5716
 21
-7.09514
  0
LINE
  8
0
 10
-18.5716
 20
-7.09514
 11
-18.3555
 21
-7.21066
  0
LINE
  8
0
 10
-18.3555
 20
-7.21066
 11
-18.1661
 21
-7.3661
  0
LINE
  8
0
 10
-18.1661
 20
-7.3661
 11
-18.0107
 21
-7.55553
  0
LINE
  8
0
 10
-18.0107
 20
-7.55553
 11
-17.8951
 21
-7.77164
  0
LINE
  8
0
 10
-17.8951
 20
-7.77164
 11
-17.824
 21
-8.00613
  0
LINE
  8
0
 10
-17.824
 20
-8.00613
 11
-17.8
 21
-8.25
  0
LINE
  8
0
 10
-17.8
 20
-8.25
 11
-17.824
 21
-8.49385
  0
LINE
  8
0
 10
-17.824
 20
-8.49385
 11
-17.8951
 21
-8.72835
  0
LINE
  8
0
 10
-17.8951
 20
-8.72835
 11
-18.0107
 21
-8.94446
  0
LINE
  8
0
 10
-18.0107
 20
-8.94446
 11
-18.1661
 21
-9.13388
  0
LINE
  8
0
 10
-18.1661
 20
-9.13388
 11
-18.3555
 21
-9.28932
  0
LINE
  8
0
 10
-18.3555
 20
-9.28932
 11
-18.5716
 21
-9.40485
  0
LINE
  8
0
 10
-18.5716
 20
-9.40485
 11
-18.8061
 21
-9.47597
  0
LINE
  8
0
 10
-18.8061
 20
-9.47597
 11
-19.05
 21
-9.5
  0
LINE
  8
0
 10
-19.05
 20
-9.5
 11
-19.2939
 21
-9.47597
  0
LINE
  8
0
 10
54.6586
 20
-15.7164
 11
54.3303
 21
-15.6168
  0
LINE
  8
0
 10
54.3303
 20
-15.6168
 11
54.0277
 21
-15.4551
  0
LINE
  8
0
 10
54.0277
 20
-15.4551
 11
53.7626
 21
-15.2374
  0
LINE
  8
0
 10
53.7626
 20
-15.2374
 11
53.5449
 21
-14.9722
  0
LINE
  8
0
 10
53.5449
 20
-14.9722
 11
53.3832
 21
-14.6697
  0
LINE
  8
0
 10
53.3832
 20
-14.6697
 11
53.2836
 21
-14.3414
  0
LINE
  8
0
 10
53.2836
 20
-14.3414
 11
53.25
 21
-14
  0
LINE
  8
0
 10
53.25
 20
-14
 11
53.2836
 21
-13.6586
  0
LINE
  8
0
 10
53.2836
 20
-13.6586
 11
53.3832
 21
-13.3303
  0
LINE
  8
0
 10
53.3832
 20
-13.3303
 11
53.5449
 21
-13.0277
  0
LINE
  8
0
 10
53.5449
 20
-13.0277
 11
53.7626
 21
-12.7626
  0
LINE
  8
0
 10
53.7626
 20
-12.7626
 11
54.0277
 21
-12.5449
  0
LINE
  8
0
 10
54.0277
 20
-12.5449
 11
54.3303
 21
-12.3832
  0
LINE
  8
0
 10
54.3303
 20
-12.3832
 11
54.6586
 21
-12.2836
  0
LINE
  8
0
 10
54.6586
 20
-12.2836
 11
55
 21
-12.25
  0
LINE
  8
0
 10
55
 20
-12.25
 11
55.3414
 21
-12.2836
  0
LINE
  8
0
 10
55.3414
 20
-12.2836
 11
55.6697
 21
-12.3832
  0
LINE
  8
0
 10
55.6697
 20
-12.3832
 11
55.9722
 21
-12.5449
  0
LINE
  8
0
 10
55.9722
 20
-12.5449
 11
56.2374
 21
-12.7626
  0
LINE
  8
0
 10
56.2374
 20
-12.7626
 11
56.4551
 21
-13.0277
  0
LINE
  8
0
 10
56.4551
 20
-13.0277
 11
56.6168
 21
-13.3303
  0
LINE
  8
0
 10
56.6168
 20
-13.3303
 11
56.7164
 21
-13.6586
  0
LINE
  8
0
 10
56.7164
 20
-13.6586
 11
56.75
 21
-14
  0
LINE
  8
0
 10
56.75
 20
-14
 11
56.7164
 21
-14.3414
  0
LINE
  8
0
 10
56.7164
 20
-14.3414
 11
56.6168
 21
-14.6697
  0
LINE
  8
0
 10
56.6168
 20
-14.6697
 11
56.4551
 21
-14.9722
  0
LINE
  8
0
 10
56.4551
 20
-14.9722
 11
56.2374
 21
-15.2374
  0
LINE
  8
0
 10
56.2374
 20
-15.2374
 11
55.9722
 21
-15.4551
  0
LINE
  8
0
 10
55.9722
 20
-15.4551
 11
55.6697
 21
-15.6168
  0
LINE
  8
0
 10
55.6697
 20
-15.6168
 11
55.3414
 21
-15.7164
  0
LINE
  8
0
 10
55.3414
 20
-15.7164
 11
55
 21
-15.75
  0
LINE
  8
0
 10
55
 20
-15.75
 11
54.6586
 21
-15.7164
  0
LINE
  8
0
 10
-55.3414
 20
-15.7164
 11
-55.6697
 21
-15.6168
  0
LINE
  8
0
 10
-55.6697
 20
-15.6168
 11
-55.9722
 21
-15.4551
  0
LINE
  8
0
 10
-55.9722
 20
-15.4551
 11
-56.2374
 21
-15.2374
  0
LINE
  8
0
 10
-56.2374
 20
-15.2374
 11
-56.4551
 21
-14.9722
  0
LINE
  8
0
 10
-56.4551
 20
-14.9722
 11
-56.6168
 21
-14.6697
  0
LINE
  8
0
 10
-56.6168
 20
-14.6697
 11
-56.7164
 21
-14.3414
  0
LINE
  8
0
 10
-56.7164
 20
-14.3414
 11
-56.75
 21
-14
  0
LINE
  8
0
 10
-56.75
 20
-14
 11
-56.7164
 21
-13.6586
  0
LINE
  8
0
 10
-56.7164
 20
-13.6586
 11
-56.6168
 21
-13.3303
  0
LINE
  8
0
 10
-56.6168
 20
-13.3303
 11
-56.4551
 21
-13.0277
  0
LINE
  8
0
 10
-56.4551
 20
-13.0277
 11
-56.2374
 21
-12.7626
  0
LINE
  8
0
 10
-56.2374
 20
-12.7626
 11
-55.9722
 21
-12.5449
  0
LINE
  8
0
 10
-55.9722
 20
-12.5449
 11
-55.6697
 21
-12.3832
  0
LINE
  8
0
 10
-55.6697
 20
-12.3832
 11
-55.3414
 21
-12.2836
  0
LINE
  8
0
 10
-55.3414
 20
-12.2836
 11
-55
 21
-12.25
  0
LINE
  8
0
 10
-55
 20
-12.25
 11
-54.6586
 21
-12.2836
  0
LINE
  8
0
 10
-54.6586
 20
-12.2836
 11
-54.3303
 21
-12.3832
  0
LINE
  8
0
 10
-54.3303
 20
-12.3832
 11
-54.0277
 21
-12.5449
  0
LINE
  8
0
 10
-54.0277
 20
-12.5449
 11
-53.7626
 21
-12.7626
  0
LINE
  8
0
 10
-53.7626
 20
-12.7626
 11
-53.5449
 21
-13.0277
  0
LINE
  8
0
 10
-53.5449
 20
-13.0277
 11
-53.3832
 21
-13.3303
  0
LINE
  8
0
 10
-53.3832
 20
-13.3303
 11
-53.2836
 21
-13.6586
  0
LINE
  8
0
 10
-53.2836
 20
-13.6586
 11
-53.25
 21
-14
  0
LINE
  8
0
 10
-53.25
 20
-14
 11
-53.2836
 21
-14.3414
  0
LINE
  8
0
 10
-53.2836
 20
-14.3414
 11
-53.3832
 21
-14.6697
  0
LINE
  8
0
 10
-53.3832
 20
-14.6697
 11
-53.5449
 21
-14.9722
  0
LINE
  8
0
 10
-53.5449
 20
-14.9722
 11
-53.7626
 21
-15.2374
  0
LINE
  8
0
 10
-53.7626
 20
-15.2374
 11
-54.0277
 21
-15.4551
  0
LINE
  8
0
 10
-54.0277
 20
-15.4551
 11
-54.3303
 21
-15.6168
  0
LINE
  8
0
 10
-54.3303
 20
-15.6168
 11
-54.6586
 21
-15.7164
  0
LINE
  8
0
 10
-54.6586
 20
-15.7164
 11
-55
 21
-15.75
  0
LINE
  8
0
 10
-55
 20
-15.75
 11
-55.3414
 21
-15.7164
  0
ENDSEC
  0
SECTION
  2
OBJECTS
  0
DICTIONARY
  0
ENDSEC
  0
EOF
