  0
SECTION
  2
BLOCKS
  0
ENDSEC
  0
SECTION
  2
ENTITIES
  0
LINE
  8
0
 10
55.6526
 20
-18.9572
 11
56.2941
 21
-18.8296
  0
LINE
  8
0
 10
56.2941
 20
-18.8296
 11
56.9134
 21
-18.6194
  0
LINE
  8
0
 10
56.9134
 20
-18.6194
 11
57.5
 21
-18.3301
  0
LINE
  8
0
 10
57.5
 20
-18.3301
 11
58.0438
 21
-17.9668
  0
LINE
  8
0
 10
58.0438
 20
-17.9668
 11
58.5355
 21
-17.5355
  0
LINE
  8
0
 10
58.5355
 20
-17.5355
 11
58.9668
 21
-17.0438
  0
LINE
  8
0
 10
58.9668
 20
-17.0438
 11
59.3301
 21
-16.5
  0
LINE
  8
0
 10
59.3301
 20
-16.5
 11
59.6194
 21
-15.9134
  0
LINE
  8
0
 10
59.6194
 20
-15.9134
 11
59.8296
 21
-15.2941
  0
LINE
  8
0
 10
59.8296
 20
-15.2941
 11
59.9572
 21
-14.6526
  0
LINE
  8
0
 10
59.9572
 20
-14.6526
 11
60
 21
-14
  0
LINE
  8
0
 10
60
 20
-14
 11
60
 21
46
  0
LINE
  8
0
 10
60
 20
46
 11
59.9572
 21
46.6526
  0
LINE
  8
0
 10
59.9572
 20
46.6526
 11
59.8296
 21
47.2941
  0
LINE
  8
0
 10
59.8296
 20
47.2941
 11
59.6194
 21
47.9134
  0
LINE
  8
0
 10
59.6194
 20
47.9134
 11
59.3301
 21
48.5
  0
LINE
  8
0
 10
59.3301
 20
48.5
 11
58.9668
 21
49.0438
  0
LINE
  8
0
 10
58.9668
 20
49.0438
 11
58.5355
 21
49.5355
  0
LINE
  8
0
 10
58.5355
 20
49.5355
 11
58.0438
 21
49.9668
  0
LINE
  8
0
 10
58.0438
 20
49.9668
 11
57.5
 21
50.3301
  0
LINE
  8
0
 10
57.5
 20
50.3301
 11
56.9134
 21
50.6194
  0
LINE
  8
0
 10
56.9134
 20
50.6194
 11
56.2941
 21
50.8296
  0
LINE
  8
0
 10
56.2941
 20
50.8296
 11
55.6526
 21
50.9572
  0
LINE
  8
0
 10
55.6526
 20
50.9572
 11
55
 21
51
  0
LINE
  8
0
 10
55
 20
51
 11
-55
 21
51
  0
LINE
  8
0
 10
-55
 20
51
 11
-55.6526
 21
50.9572
  0
LINE
  8
0
 10
-55.6526
 20
50.9572
 11
-56.2941
 21
50.8296
  0
LINE
  8
0
 10
-56.2941
 20
50.8296
 11
-56.9134
 21
50.6194
  0
LINE
  8
0
 10
-56.9134
 20
50.6194
 11
-57.5
 21
50.3301
  0
LINE
  8
0
 10
-57.5
 20
50.3301
 11
-58.0438
 21
49.9668
  0
LINE
  8
0
 10
-58.0438
 20
49.9668
 11
-58.5355
 21
49.5355
  0
LINE
  8
0
 10
-58.5355
 20
49.5355
 11
-58.9668
 21
49.0438
  0
LINE
  8
0
 10
-58.9668
 20
49.0438
 11
-59.3301
 21
48.5
  0
LINE
  8
0
 10
-59.3301
 20
48.5
 11
-59.6194
 21
47.9134
  0
LINE
  8
0
 10
-59.6194
 20
47.9134
 11
-59.8296
 21
47.2941
  0
LINE
  8
0
 10
-59.8296
 20
47.2941
 11
-59.9572
 21
46.6526
  0
LINE
  8
0
 10
-59.9572
 20
46.6526
 11
-60
 21
46
  0
LINE
  8
0
 10
-60
 20
46
 11
-60
 21
-14
  0
LINE
  8
0
 10
-60
 20
-14
 11
-59.9572
 21
-14.6526
  0
LINE
  8
0
 10
-59.9572
 20
-14.6526
 11
-59.8296
 21
-15.2941
  0
LINE
  8
0
 10
-59.8296
 20
-15.2941
 11
-59.6194
 21
-15.9134
  0
LINE
  8
0
 10
-59.6194
 20
-15.9134
 11
-59.3301
 21
-16.5
  0
LINE
  8
0
 10
-59.3301
 20
-16.5
 11
-58.9668
 21
-17.0438
  0
LINE
  8
0
 10
-58.9668
 20
-17.0438
 11
-58.5355
 21
-17.5355
  0
LINE
  8
0
 10
-58.5355
 20
-17.5355
 11
-58.0438
 21
-17.9668
  0
LINE
  8
0
 10
-58.0438
 20
-17.9668
 11
-57.5
 21
-18.3301
  0
LINE
  8
0
 10
-57.5
 20
-18.3301
 11
-56.9134
 21
-18.6194
  0
LINE
  8
0
 10
-56.9134
 20
-18.6194
 11
-56.2941
 21
-18.8296
  0
LINE
  8
0
 10
-56.2941
 20
-18.8296
 11
-55.6526
 21
-18.9572
  0
LINE
  8
0
 10
-55.6526
 20
-18.9572
 11
-55
 21
-19
  0
LINE
  8
0
 10
-55
 20
-19
 11
55
 21
-19
  0
LINE
  8
0
 10
55
 20
-19
 11
55.6526
 21
-18.9572
  0
LINE
  8
0
 10
-55.3414
 20
44.2836
 11
-55.6697
 21
44.3832
  0
LINE
  8
0
 10
-55.6697
 20
44.3832
 11
-55.9722
 21
44.5449
  0
LINE
  8
0
 10
-55.9722
 20
44.5449
 11
-56.2374
 21
44.7626
  0
LINE
  8
0
 10
-56.2374
 20
44.7626
 11
-56.4551
 21
45.0277
  0
LINE
  8
0
 10
-56.4551
 20
45.0277
 11
-56.6168
 21
45.3303
  0
LINE
  8
0
 10
-56.6168
 20
45.3303
 11
-56.7164
 21
45.6586
  0
LINE
  8
0
 10
-56.7164
 20
45.6586
 11
-56.75
 21
46
  0
LINE
  8
0
 10
-56.75
 20
46
 11
-56.7164
 21
46.3414
  0
LINE
  8
0
 10
-56.7164
 20
46.3414
 11
-56.6168
 21
46.6697
  0
LINE
  8
0
 10
-56.6168
 20
46.6697
 11
-56.4551
 21
46.9722
  0
LINE
  8
0
 10
-56.4551
 20
46.9722
 11
-56.2374
 21
47.2374
  0
LINE
  8
0
 10
-56.2374
 20
47.2374
 11
-55.9722
 21
47.4551
  0
LINE
  8
0
 10
-55.9722
 20
47.4551
 11
-55.6697
 21
47.6168
  0
LINE
  8
0
 10
-55.6697
 20
47.6168
 11
-55.3414
 21
47.7164
  0
LINE
  8
0
 10
-55.3414
 20
47.7164
 11
-55
 21
47.75
  0
LINE
  8
0
 10
-55
 20
47.75
 11
-54.6586
 21
47.7164
  0
LINE
  8
0
 10
-54.6586
 20
47.7164
 11
-54.3303
 21
47.6168
  0
LINE
  8
0
 10
-54.3303
 20
47.6168
 11
-54.0277
 21
47.4551
  0
LINE
  8
0
 10
-54.0277
 20
47.4551
 11
-53.7626
 21
47.2374
  0
LINE
  8
0
 10
-53.7626
 20
47.2374
 11
-53.5449
 21
46.9722
  0
LINE
  8
0
 10
-53.5449
 20
46.9722
 11
-53.3832
 21
46.6697
  0
LINE
  8
0
 10
-53.3832
 20
46.6697
 11
-53.2836
 21
46.3414
  0
LINE
  8
0
 10
-53.2836
 20
46.3414
 11
-53.25
 21
46
  0
LINE
  8
0
 10
-53.25
 20
46
 11
-53.2836
 21
45.6586
  0
LINE
  8
0
 10
-53.2836
 20
45.6586
 11
-53.3832
 21
45.3303
  0
LINE
  8
0
 10
-53.3832
 20
45.3303
 11
-53.5449
 21
45.0277
  0
LINE
  8
0
 10
-53.5449
 20
45.0277
 11
-53.7626
 21
44.7626
  0
LINE
  8
0
 10
-53.7626
 20
44.7626
 11
-54.0277
 21
44.5449
  0
LINE
  8
0
 10
-54.0277
 20
44.5449
 11
-54.3303
 21
44.3832
  0
LINE
  8
0
 10
-54.3303
 20
44.3832
 11
-54.6586
 21
44.2836
  0
LINE
  8
0
 10
-54.6586
 20
44.2836
 11
-55
 21
44.25
  0
LINE
  8
0
 10
-55
 20
44.25
 11
-55.3414
 21
44.2836
  0
LINE
  8
0
 10
54.6586
 20
44.2836
 11
54.3303
 21
44.3832
  0
LINE
  8
0
 10
54.3303
 20
44.3832
 11
54.0277
 21
44.5449
  0
LINE
  8
0
 10
54.0277
 20
44.5449
 11
53.7626
 21
44.7626
  0
LINE
  8
0
 10
53.7626
 20
44.7626
 11
53.5449
 21
45.0277
  0
LINE
  8
0
 10
53.5449
 20
45.0277
 11
53.3832
 21
45.3303
  0
LINE
  8
0
 10
53.3832
 20
45.3303
 11
53.2836
 21
45.6586
  0
LINE
  8
0
 10
53.2836
 20
45.6586
 11
53.25
 21
46
  0
LINE
  8
0
 10
53.25
 20
46
 11
53.2836
 21
46.3414
  0
LINE
  8
0
 10
53.2836
 20
46.3414
 11
53.3832
 21
46.6697
  0
LINE
  8
0
 10
53.3832
 20
46.6697
 11
53.5449
 21
46.9722
  0
LINE
  8
0
 10
53.5449
 20
46.9722
 11
53.7626
 21
47.2374
  0
LINE
  8
0
 10
53.7626
 20
47.2374
 11
54.0277
 21
47.4551
  0
LINE
  8
0
 10
54.0277
 20
47.4551
 11
54.3303
 21
47.6168
  0
LINE
  8
0
 10
54.3303
 20
47.6168
 11
54.6586
 21
47.7164
  0
LINE
  8
0
 10
54.6586
 20
47.7164
 11
55
 21
47.75
  0
LINE
  8
0
 10
55
 20
47.75
 11
55.3414
 21
47.7164
  0
LINE
  8
0
 10
55.3414
 20
47.7164
 11
55.6697
 21
47.6168
  0
LINE
  8
0
 10
55.6697
 20
47.6168
 11
55.9722
 21
47.4551
  0
LINE
  8
0
 10
55.9722
 20
47.4551
 11
56.2374
 21
47.2374
  0
LINE
  8
0
 10
56.2374
 20
47.2374
 11
56.4551
 21
46.9722
  0
LINE
  8
0
 10
56.4551
 20
46.9722
 11
56.6168
 21
46.6697
  0
LINE
  8
0
 10
56.6168
 20
46.6697
 11
56.7164
 21
46.3414
  0
LINE
  8
0
 10
56.7164
 20
46.3414
 11
56.75
 21
46
  0
LINE
  8
0
 10
56.75
 20
46
 11
56.7164
 21
45.6586
  0
LINE
  8
0
 10
56.7164
 20
45.6586
 11
56.6168
 21
45.3303
  0
LINE
  8
0
 10
56.6168
 20
45.3303
 11
56.4551
 21
45.0277
  0
LINE
  8
0
 10
56.4551
 20
45.0277
 11
56.2374
 21
44.7626
  0
LINE
  8
0
 10
56.2374
 20
44.7626
 11
55.9722
 21
44.5449
  0
LINE
  8
0
 10
55.9722
 20
44.5449
 11
55.6697
 21
44.3832
  0
LINE
  8
0
 10
55.6697
 20
44.3832
 11
55.3414
 21
44.2836
  0
LINE
  8
0
 10
55.3414
 20
44.2836
 11
55
 21
44.25
  0
LINE
  8
0
 10
55
 20
44.25
 11
54.6586
 21
44.2836
  0
LINE
  8
0
 10
-0.3414
 20
16.2836
 11
-0.669693
 21
16.3832
  0
LINE
  8
0
 10
-0.669693
 20
16.3832
 11
-0.972244
 21
16.5449
  0
LINE
  8
0
 10
-0.972244
 20
16.5449
 11
-1.23743
 21
16.7626
  0
LINE
  8
0
 10
-1.23743
 20
16.7626
 11
-1.45506
 21
17.0277
  0
LINE
  8
0
 10
-1.45506
 20
17.0277
 11
-1.61678
 21
17.3303
  0
LINE
  8
0
 10
-1.61678
 20
17.3303
 11
-1.71637
 21
17.6586
  0
LINE
  8
0
 10
-1.71637
 20
17.6586
 11
-1.75
 21
18
  0
LINE
  8
0
 10
-1.75
 20
18
 11
-1.71637
 21
18.3414
  0
LINE
  8
0
 10
-1.71637
 20
18.3414
 11
-1.61678
 21
18.6697
  0
LINE
  8
0
 10
-1.61678
 20
18.6697
 11
-1.45506
 21
18.9722
  0
LINE
  8
0
 10
-1.45506
 20
18.9722
 11
-1.23743
 21
19.2374
  0
LINE
  8
0
 10
-1.23743
 20
19.2374
 11
-0.972244
 21
19.4551
  0
LINE
  8
0
 10
-0.972244
 20
19.4551
 11
-0.669693
 21
19.6168
  0
LINE
  8
0
 10
-0.669693
 20
19.6168
 11
-0.3414
 21
19.7164
  0
LINE
  8
0
 10
-0.3414
 20
19.7164
 11
0
 21
19.75
  0
LINE
  8
0
 10
0
 20
19.75
 11
0.3414
 21
19.7164
  0
LINE
  8
0
 10
0.3414
 20
19.7164
 11
0.669693
 21
19.6168
  0
LINE
  8
0
 10
0.669693
 20
19.6168
 11
0.972244
 21
19.4551
  0
LINE
  8
0
 10
0.972244
 20
19.4551
 11
1.23743
 21
19.2374
  0
LINE
  8
0
 10
1.23743
 20
19.2374
 11
1.45506
 21
18.9722
  0
LINE
  8
0
 10
1.45506
 20
18.9722
 11
1.61678
 21
18.6697
  0
LINE
  8
0
 10
1.61678
 20
18.6697
 11
1.71637
 21
18.3414
  0
LINE
  8
0
 10
1.71637
 20
18.3414
 11
1.75
 21
18
  0
LINE
  8
0
 10
1.75
 20
18
 11
1.71637
 21
17.6586
  0
LINE
  8
0
 10
1.71637
 20
17.6586
 11
1.61678
 21
17.3303
  0
LINE
  8
0
 10
1.61678
 20
17.3303
 11
1.45506
 21
17.0277
  0
LINE
  8
0
 10
1.45506
 20
17.0277
 11
1.23743
 21
16.7626
  0
LINE
  8
0
 10
1.23743
 20
16.7626
 11
0.972244
 21
16.5449
  0
LINE
  8
0
 10
0.972244
 20
16.5449
 11
0.669693
 21
16.3832
  0
LINE
  8
0
 10
0.669693
 20
16.3832
 11
0.3414
 21
16.2836
  0
LINE
  8
0
 10
0.3414
 20
16.2836
 11
0
 21
16.25
  0
LINE
  8
0
 10
0
 20
16.25
 11
-0.3414
 21
16.2836
  0
LINE
  8
0
 10
-55.3414
 20
-15.7164
 11
-55.6697
 21
-15.6168
  0
LINE
  8
0
 10
-55.6697
 20
-15.6168
 11
-55.9722
 21
-15.4551
  0
LINE
  8
0
 10
-55.9722
 20
-15.4551
 11
-56.2374
 21
-15.2374
  0
LINE
  8
0
 10
-56.2374
 20
-15.2374
 11
-56.4551
 21
-14.9722
  0
LINE
  8
0
 10
-56.4551
 20
-14.9722
 11
-56.6168
 21
-14.6697
  0
LINE
  8
0
 10
-56.6168
 20
-14.6697
 11
-56.7164
 21
-14.3414
  0
LINE
  8
0
 10
-56.7164
 20
-14.3414
 11
-56.75
 21
-14
  0
LINE
  8
0
 10
-56.75
 20
-14
 11
-56.7164
 21
-13.6586
  0
LINE
  8
0
 10
-56.7164
 20
-13.6586
 11
-56.6168
 21
-13.3303
  0
LINE
  8
0
 10
-56.6168
 20
-13.3303
 11
-56.4551
 21
-13.0277
  0
LINE
  8
0
 10
-56.4551
 20
-13.0277
 11
-56.2374
 21
-12.7626
  0
LINE
  8
0
 10
-56.2374
 20
-12.7626
 11
-55.9722
 21
-12.5449
  0
LINE
  8
0
 10
-55.9722
 20
-12.5449
 11
-55.6697
 21
-12.3832
  0
LINE
  8
0
 10
-55.6697
 20
-12.3832
 11
-55.3414
 21
-12.2836
  0
LINE
  8
0
 10
-55.3414
 20
-12.2836
 11
-55
 21
-12.25
  0
LINE
  8
0
 10
-55
 20
-12.25
 11
-54.6586
 21
-12.2836
  0
LINE
  8
0
 10
-54.6586
 20
-12.2836
 11
-54.3303
 21
-12.3832
  0
LINE
  8
0
 10
-54.3303
 20
-12.3832
 11
-54.0277
 21
-12.5449
  0
LINE
  8
0
 10
-54.0277
 20
-12.5449
 11
-53.7626
 21
-12.7626
  0
LINE
  8
0
 10
-53.7626
 20
-12.7626
 11
-53.5449
 21
-13.0277
  0
LINE
  8
0
 10
-53.5449
 20
-13.0277
 11
-53.3832
 21
-13.3303
  0
LINE
  8
0
 10
-53.3832
 20
-13.3303
 11
-53.2836
 21
-13.6586
  0
LINE
  8
0
 10
-53.2836
 20
-13.6586
 11
-53.25
 21
-14
  0
LINE
  8
0
 10
-53.25
 20
-14
 11
-53.2836
 21
-14.3414
  0
LINE
  8
0
 10
-53.2836
 20
-14.3414
 11
-53.3832
 21
-14.6697
  0
LINE
  8
0
 10
-53.3832
 20
-14.6697
 11
-53.5449
 21
-14.9722
  0
LINE
  8
0
 10
-53.5449
 20
-14.9722
 11
-53.7626
 21
-15.2374
  0
LINE
  8
0
 10
-53.7626
 20
-15.2374
 11
-54.0277
 21
-15.4551
  0
LINE
  8
0
 10
-54.0277
 20
-15.4551
 11
-54.3303
 21
-15.6168
  0
LINE
  8
0
 10
-54.3303
 20
-15.6168
 11
-54.6586
 21
-15.7164
  0
LINE
  8
0
 10
-54.6586
 20
-15.7164
 11
-55
 21
-15.75
  0
LINE
  8
0
 10
-55
 20
-15.75
 11
-55.3414
 21
-15.7164
  0
LINE
  8
0
 10
54.6586
 20
-15.7164
 11
54.3303
 21
-15.6168
  0
LINE
  8
0
 10
54.3303
 20
-15.6168
 11
54.0277
 21
-15.4551
  0
LINE
  8
0
 10
54.0277
 20
-15.4551
 11
53.7626
 21
-15.2374
  0
LINE
  8
0
 10
53.7626
 20
-15.2374
 11
53.5449
 21
-14.9722
  0
LINE
  8
0
 10
53.5449
 20
-14.9722
 11
53.3832
 21
-14.6697
  0
LINE
  8
0
 10
53.3832
 20
-14.6697
 11
53.2836
 21
-14.3414
  0
LINE
  8
0
 10
53.2836
 20
-14.3414
 11
53.25
 21
-14
  0
LINE
  8
0
 10
53.25
 20
-14
 11
53.2836
 21
-13.6586
  0
LINE
  8
0
 10
53.2836
 20
-13.6586
 11
53.3832
 21
-13.3303
  0
LINE
  8
0
 10
53.3832
 20
-13.3303
 11
53.5449
 21
-13.0277
  0
LINE
  8
0
 10
53.5449
 20
-13.0277
 11
53.7626
 21
-12.7626
  0
LINE
  8
0
 10
53.7626
 20
-12.7626
 11
54.0277
 21
-12.5449
  0
LINE
  8
0
 10
54.0277
 20
-12.5449
 11
54.3303
 21
-12.3832
  0
LINE
  8
0
 10
54.3303
 20
-12.3832
 11
54.6586
 21
-12.2836
  0
LINE
  8
0
 10
54.6586
 20
-12.2836
 11
55
 21
-12.25
  0
LINE
  8
0
 10
55
 20
-12.25
 11
55.3414
 21
-12.2836
  0
LINE
  8
0
 10
55.3414
 20
-12.2836
 11
55.6697
 21
-12.3832
  0
LINE
  8
0
 10
55.6697
 20
-12.3832
 11
55.9722
 21
-12.5449
  0
LINE
  8
0
 10
55.9722
 20
-12.5449
 11
56.2374
 21
-12.7626
  0
LINE
  8
0
 10
56.2374
 20
-12.7626
 11
56.4551
 21
-13.0277
  0
LINE
  8
0
 10
56.4551
 20
-13.0277
 11
56.6168
 21
-13.3303
  0
LINE
  8
0
 10
56.6168
 20
-13.3303
 11
56.7164
 21
-13.6586
  0
LINE
  8
0
 10
56.7164
 20
-13.6586
 11
56.75
 21
-14
  0
LINE
  8
0
 10
56.75
 20
-14
 11
56.7164
 21
-14.3414
  0
LINE
  8
0
 10
56.7164
 20
-14.3414
 11
56.6168
 21
-14.6697
  0
LINE
  8
0
 10
56.6168
 20
-14.6697
 11
56.4551
 21
-14.9722
  0
LINE
  8
0
 10
56.4551
 20
-14.9722
 11
56.2374
 21
-15.2374
  0
LINE
  8
0
 10
56.2374
 20
-15.2374
 11
55.9722
 21
-15.4551
  0
LINE
  8
0
 10
55.9722
 20
-15.4551
 11
55.6697
 21
-15.6168
  0
LINE
  8
0
 10
55.6697
 20
-15.6168
 11
55.3414
 21
-15.7164
  0
LINE
  8
0
 10
55.3414
 20
-15.7164
 11
55
 21
-15.75
  0
LINE
  8
0
 10
55
 20
-15.75
 11
54.6586
 21
-15.7164
  0
ENDSEC
  0
SECTION
  2
OBJECTS
  0
DICTIONARY
  0
ENDSEC
  0
EOF
